<mxfile host="app.diagrams.net" modified="2021-05-28T12:16:13.847Z" agent="5.0 (Macintosh; Intel Mac OS X 10_15_7) AppleWebKit/537.36 (KHTML, like Gecko) Chrome/90.0.4430.212 Safari/537.36" etag="mo3JjjQHkX2JSVNO923B" version="14.6.0" type="github">
  <diagram id="IMf1uD7LTIEyPVfb-kmr" name="Page-1">
    <mxGraphModel dx="625" dy="636" grid="1" gridSize="10" guides="1" tooltips="1" connect="1" arrows="1" fold="1" page="1" pageScale="1" pageWidth="827" pageHeight="1169" math="0" shadow="0">
      <root>
        <mxCell id="0" />
        <mxCell id="1" parent="0" />
        <mxCell id="wXfIVqRI5IDE_gxadgP8-2" value="" style="shape=image;html=1;verticalAlign=top;verticalLabelPosition=bottom;labelBackgroundColor=#ffffff;imageAspect=0;aspect=fixed;image=https://cdn4.iconfinder.com/data/icons/logos-brands-5/24/netlify-128.png" vertex="1" parent="1">
          <mxGeometry x="516.99" y="165" width="70" height="70" as="geometry" />
        </mxCell>
        <mxCell id="wXfIVqRI5IDE_gxadgP8-4" value="" style="shape=image;html=1;verticalAlign=top;verticalLabelPosition=bottom;labelBackgroundColor=#ffffff;imageAspect=0;aspect=fixed;image=https://cdn0.iconfinder.com/data/icons/picons-social/57/spotify_rounded-128.png;fillColor=#000608;" vertex="1" parent="1">
          <mxGeometry x="65" y="460" width="80" height="80" as="geometry" />
        </mxCell>
        <mxCell id="wXfIVqRI5IDE_gxadgP8-9" value="" style="shape=image;html=1;verticalAlign=top;verticalLabelPosition=bottom;labelBackgroundColor=#ffffff;imageAspect=0;aspect=fixed;image=https://cdn4.iconfinder.com/data/icons/ionicons/512/icon-social-github-128.png;fillColor=#000000;" vertex="1" parent="1">
          <mxGeometry x="320" y="165" width="70" height="70" as="geometry" />
        </mxCell>
        <mxCell id="wXfIVqRI5IDE_gxadgP8-22" value="" style="swimlane;fillColor=none;startSize=0;" vertex="1" parent="1">
          <mxGeometry x="430" y="290" width="244" height="130" as="geometry" />
        </mxCell>
        <mxCell id="wXfIVqRI5IDE_gxadgP8-6" value="" style="shape=image;html=1;verticalAlign=top;verticalLabelPosition=bottom;labelBackgroundColor=#ffffff;imageAspect=0;aspect=fixed;image=https://cdn4.iconfinder.com/data/icons/logos-brands-5/24/react-128.png;fillColor=#000608;" vertex="1" parent="wXfIVqRI5IDE_gxadgP8-22">
          <mxGeometry x="160" y="27.5" width="65" height="65" as="geometry" />
        </mxCell>
        <mxCell id="wXfIVqRI5IDE_gxadgP8-7" value="" style="shape=image;html=1;verticalAlign=top;verticalLabelPosition=bottom;labelBackgroundColor=#ffffff;imageAspect=0;aspect=fixed;image=https://cdn4.iconfinder.com/data/icons/scripting-and-programming-languages/512/js-128.png;fillColor=#000608;" vertex="1" parent="wXfIVqRI5IDE_gxadgP8-22">
          <mxGeometry x="50" y="30" width="60" height="60" as="geometry" />
        </mxCell>
        <mxCell id="wXfIVqRI5IDE_gxadgP8-23" value="" style="swimlane;fillColor=none;startSize=0;" vertex="1" parent="1">
          <mxGeometry x="40" y="290" width="250" height="130" as="geometry" />
        </mxCell>
        <mxCell id="wXfIVqRI5IDE_gxadgP8-5" value="" style="shape=image;html=1;verticalAlign=top;verticalLabelPosition=bottom;labelBackgroundColor=#ffffff;imageAspect=0;aspect=fixed;image=https://cdn4.iconfinder.com/data/icons/logos-brands-5/24/python-128.png;fillColor=#000608;" vertex="1" parent="wXfIVqRI5IDE_gxadgP8-23">
          <mxGeometry x="30" y="30" width="70" height="70" as="geometry" />
        </mxCell>
        <mxCell id="wXfIVqRI5IDE_gxadgP8-16" value="" style="shape=image;html=1;verticalAlign=top;verticalLabelPosition=bottom;labelBackgroundColor=#ffffff;imageAspect=0;aspect=fixed;image=https://cdn4.iconfinder.com/data/icons/basic-user-interface-elements/700/folder-storage-files-128.png;fillColor=#000000;" vertex="1" parent="wXfIVqRI5IDE_gxadgP8-23">
          <mxGeometry x="150" y="30" width="70" height="70" as="geometry" />
        </mxCell>
        <mxCell id="wXfIVqRI5IDE_gxadgP8-37" value="" style="endArrow=classic;html=1;" edge="1" parent="wXfIVqRI5IDE_gxadgP8-23" source="wXfIVqRI5IDE_gxadgP8-5" target="wXfIVqRI5IDE_gxadgP8-16">
          <mxGeometry width="50" height="50" relative="1" as="geometry">
            <mxPoint x="85.1340996168583" y="120" as="sourcePoint" />
            <mxPoint x="85.36398467432946" y="180" as="targetPoint" />
          </mxGeometry>
        </mxCell>
        <mxCell id="wXfIVqRI5IDE_gxadgP8-27" value="" style="group" vertex="1" connectable="0" parent="1">
          <mxGeometry x="111" y="125" width="123.46" height="115" as="geometry" />
        </mxCell>
        <mxCell id="wXfIVqRI5IDE_gxadgP8-17" value="" style="group" vertex="1" connectable="0" parent="wXfIVqRI5IDE_gxadgP8-27">
          <mxGeometry x="19" width="104.46" height="115" as="geometry" />
        </mxCell>
        <mxCell id="wXfIVqRI5IDE_gxadgP8-14" value="" style="shape=image;verticalLabelPosition=bottom;labelBackgroundColor=#ffffff;verticalAlign=top;aspect=fixed;imageAspect=0;image=data:image/png,iVBORw0KGgoAAAANSUhEUgAABLAAAAVmCAYAAACJMUdJAAAABGdBTUEAALGPC/xhBQAAACBjSFJNAAB6JgAAgIQAAPoAAACA6AAAdTAAAOpgAAA6mAAAF3CculE8AAAABmJLR0QA/wD/AP+gvaeTAACAAElEQVR42uzdeZxcZ3Xn/++5VS21JKtL8iar7q3qkmxsYwEG2htm3wNBM5kAkwAWZDGZX6zF7DYYA2axvAZbi+2wTQbb/GYmIfnNRIFACDsEsA2YILCFrO6urqrulmSj7rJkqavqnt8fkgmLFy3dXVX3ft6vFy9kdavrOec8t+re089zrwQAAAAAAAAAAAAAAAAAAAAAAAAAAAAAAAAAAAAAAAAAAAAA+BUjBQAAAE+uVCr1Tk1NHZfNZvtaraDPPV4gZRaYtXKPfo97EARBfOi/LXb3iV+ddJnFcewTQRDUzVp7p6aCvXPn+p5yuVyX1CTDAAAAj48GFgAASLUlS5YsMJvbn80GRSkuuFtB8oJkJ0o6UdLJh/533AwO40FJuyTtNtNudx+TrCr5sFlQDoJ4ZOHChZWtW7dOUTEAAJBGNLAAAEAaZIvF4hlxbGdIdrrkT3HXGZJOl3RSl8QQSxqRbJuZb5N8m1lwf6Oh+8fGhoYoMQAASDIaWAAAIFFOPPGMhb29Bwak+Gx3O1vS2ZJWSJqb4LD3SLrXXT85+P/+43z+pJ/cc889DWYEAABIAhpYAACgmwXFYvGpzaadL+k5ZrpA0lMlZUiNHpH0Q0nfk/x7Uut71Wq1QloAAEA3ooEFAAC6SrFYXB7Hepl78DLJXyLpBLJy2EYl+7ZZ/JVWK/Ol0dHBYVICAAC6AQ0sAADQ0U4+edmSnh7/PSl+lWQv1sEbqmN6bJP0r5J/wb351Vqtto+UAACATkQDCwAAdNz5SRSVznP333fXq8z0bEkBaZlx+939G0GgLwSBtpTL5R2kBAAAdMwJIikAAAAdIMjnixdKwevN/A8lRaSkzSeJpp9J9rfNZvy/x8bKPyMjAACgrecmpAAAALTrPGTp0sLzgsDeKNl/kbSElHQmd20NAvs7qXlnpVL5BRkBAACzfuJICgAAwGxaunRZfybT+mN3u1jSaWSky04eTfdIfnuj0fP/jo8/sJOMAACAWTkHIQUAAGCmnXTSScfNnTvvje72Z5LOJyOJMGXmX3S3T1arw/8sqUVKAADATKGBBQAAZswppxTPCoLgzWb+F5IWk5HEqrnb7VJwS622o0w6AADAdKOBBQAAptWKFSvm7NlT/yNJayQ7j4ykStNd/2imjdXq8NdIBwAAmC40sAAAwLRYvnx5bmqq+Sfu9i7xFEFI95r5LVJ8e6VSeYR0AACAY0EDCwAAHJN8vnSm5O8w00WS5pER/Dp3jZlps1nrlkql8hAZAQAAR4MGFgAAOCqFQuFpcRy8R9IbJWXICJ7Ew+72mUymde3IyEiNdAAAgCNBAwsAAByRMCw9U9L7JH8d5xI4Cgck+x/umY/Wag+MkA4AAHA4OOkEAACH5WDjyj8q6ffJBqbBlLv+utkMPrZz5+A46QAAAE+EBhYAAHhCp5xSKmUyeq/kfy62CmL67XW3TXPm6JqhoaE9pAMAADwWGlgAAOAxFQqFfKsVfMhMfyopS0Ywwx4y8+uy2eDmoaGh/aQDAAD8On6LCgAAfsOKFSvmzJ07b40UfF7ShZICsoJZME+yl8Wx/qSvL/dgvT7xE1ICAAAexQosAADwK/l8cWUQ2M3uWkY20F7+A8neVq0O/xu5AAAANLAAAIDy+f5nmWmDpOeRDXSQWPLP9vQE7x0aGhojHQAApBcNLAAAUqxYLC5uNoMPmflqcWsBdK69ZnZDLrfg6q1bt06RDgAA0ocGFgAAKT0HCMPiKsmul3Qy6UCXuD8I7NKRkaEvkQoAAFJ28koKAABIl6VLiwNBYJskXUA20KW2xHGwZnR0cJhUAACQDjSwAABIiTAMT3Dv+YCZrxFPFkT322dm12ezumZoaGg/6QAAINloYAEAkHzZKCr+mbtdLekE0oGE2S7pbdXq8D+RCgAAkosGFgAACVYoLHtBHMcbJT2DbCDhtmQyfmm5XN5BKgAASB4aWAAAJFChUMjHcXCNpIv4vEeKTLnbbY3G3it27dr1MOkAACA5OKEFACBBVqxYMWdiov52d3u/pOPIyFFrSdopaVRSzV2jQWA1d41K8UOSHnHXfkn73fVINusHzGxfq9WaymQyeyWp0cj09fS0Mq1WZmEct7LZbGZBq9WaI/l8M+t1t5PNtETySLIlkkWSLxFPhZwOQ2Z6R6Uy/A+kAgCAZKCBBQBAQhQKpVfGsd8s6QyycVhaku9wt5+a6edm2moWb5NUGxkZGT/49dm3YsWKOXv27DnZPVuUdGYQ6KlxrKeZ6amS+inbEZzomn85jjPrarXB+8kGAABd/rlOCgAA6G6nnFIqZbP+cXf9Adl4XLsl+zfJ//3RhtW8edmfb9++/UA3BXHiiWcs7O2democx08LAj3VXc+UdIFYbfdEpszspgMH9n6EbYUAAHQvGlgAAHSpKIrmScE6tgs+plHJvm0Wf6fV0rdHR8s/khQnNNZMsVg8M471XHd7nqQXSioyBR5rTvjl1Wr5dklOOgAA6C40sAAA6EL5fOk/B4F/3F3LyIYk6T4z/Wsc23fMGt+qVquVNCcjDJef7h4/1yx+gWQvlxQyRQ5y928GQWZtpTL4E7IBAED3oIEFAEAXOdiYaN1spt9LeSr2Sfqau77QaumL4+PDg8yOxz/fKxQKA3Ec/GdJ/0nSM0iJmu66dc4c+8DQ0NAe0gEAQBec0JACAAA6Xz6fnx8Ec97j7pdLmpvSNOyT9FXJ//bAgXn/sHv3/XVmxpFbunRZfybTeqW7rZT0CklzUpyOh8z8w5VKeZPadNN+AABweGhgAQDQ4fL50h+b+fWSohSG33DXFin+mzlzMl8eGhraz4yYPsVicXGrpZWS/YmkF6X43PD7QRCvGRkZuZtZAQBAZ6KBBQBAh8rnl50RBK0N7vaKFIZ/n5n/zdRU5m927hwcZzbMvDAMI7PMmyT7bym9t5pLuqPZzL5rfPyBncwIAAA6Cw0sAAA6zPLly3P798fvNfO3K0Xbu8w06a7/4+6frdXKX2EmtE2QzxdfYmZvlvRaSfNTFv8eM/8Q2woBAOiwc0VSAABA53wuh2HpLZJfI2lJiuL+nuS3uDc/X6vV9jENOkcURcdLwZvcbbWkM1IW/o/dfW2tVv42MwEAgA44USYFAAC0Xz7f/ywzbZT03JSEHEv6grtfU6uVv8MM6Pxzxny++FIzu1TS76fsHHKLe/aSWu2BEaYBAABtPBkhBQAAtE8YhidImY9J9lZJQQpC3if5J9yzH6/VdpSZAd0niqKnx3HmMjP9kaRsKk6YD25v/fApp5y44Z577mkwCwAAaMPnMSkAAKAtgjAsXiTZDZJOSkG8D7vbZ3p6/Jrh4eFRyt/9TjmlVAoCvd3M/0JSb0rC3mZml1YqQ//MDAAAYHbRwAIAYJbl8/0XHtou+OwUhPuwpI9nMv7xcrn8S6qfxPl8asGscYVkfyapJyVh/5175p2sIgQAYPbQwAIAYJaEYXiCe88HzHyNkr9dcEqyv+np0QeHhobGqH7yLV26rD8I/H2S/7mkTApCfsTMrstmdc3Q0NB+ZgAAADOLBhYAADNsYGCgZ2zswTWSf1BSLuHhxpLf7t5zJTe9TqeD98gKrjezV6Yk5O2Sv71aLW+h+gAAzBwaWAAAzOjFfOmF7too+dOTH63/QLK3VavD/0blkc8XX2ZmH5f0tJSE/JU41rrR0eGfU30AAKYfDSwAAGZAGIaR1HOj5P81BeGW3e09tdrQ/5bkVB+PGhgY6Bkf3/X/uNtVkhanIOT9km50b1xdq9X2MQMAAJg+GVIAAMD0XrBnMj1rpcznlfybtDfcbXOjse+14+O1H1F9/LbR0dF4cnLiB7ncwk+6Z+aZ6Rwl+/5vWUkvMMv8SV9fbne9PnEvswAAgOnBCiwAAKZJGBZfamYb3HVWCsL9irutrdWG7qPyOFz5fP+zDz2B88KUhPy1IIjXjYyM/JTqAwBwbGhgAQBwzBflpxbMmh+TtCoF4T4g+du4YTWO5fwzDIurJLtO0pIUxNt0t1v2789e+dBD2ycpPwAAR3kCQQoAADg6URTNk7KXuftlknoTHu4+M7s+m9U1Q0ND+6k+jlWpVFo0NaWrzPwSHdx6l3Sjkl9erZZvF/eKAwDgiNHAAgDgKOTzxZVBYDe7a1kKwt3SatnasbGhISqP6T+WSmeaaYPkL0/J6fddZramUhn8AdUHAOAIPkFJAQAAhy+Koqe4Z26W9KoUhLvNzC6tVIb+mcpjpuXzxZVmtklSMQXhxpLudG+8o1ar7ab6AAA8OZ5CCADAYViyZMmCxYtPusLdPifpzISHu9fM1i9adNwbH3jgF/dTfcyGen1i28KFCz4RBNmmpOco2dsKTdLZZpmLc7ncgcnJibvFtkIAAJ70wxMAADyBFK0Mccn+zj3zzlrtgREqj3Y5tNLxJkmvTknIP3TX2lpt+LtUHwCAx0YDCwCAx5Gye/P82N3X1mrlb1N5dM4xmKp7zbmkOxqN4N07dw6OU30AAH4TWwgBAPgtpVJp0fz5i6418/8u6SkJD3ePmV9erZYvrtcnhqk+Okm9PrGtr2/hJ8wyTUkXKAXbCjMZvziXy+2fnJy4RwfvlQUAAMQKLAAAfuNzMQyLqyS7TtKShMfqku5oNrPvGh9/YCelR6fL508tmDU/JmlVSkK+z93X1Wrlf6H6AADQwAIA4NDFcf+zzbRR0oWJ//A33eNua6rVoe9ReXSbMCy+1Mw2uOuslIS8xT2zulbbUab6AIA0o4EFAEi1KIqOj+PsB818tZK/tf4hM/9wpVLeKLYmoYsNDAz0jI/vusTdPiJpYQpC3mdm1/f2Ztdv3779ADMAAJBGNLAAAGkVhGHxIslulHRiwmONJd3p3nhHrVbbTemRFIVCIR/HwTWSLkrHea3/wswurVSGv0j1AQBpQwMLAJDGi95z49g2SXZe4i933b8ZBJm1lcrgT6g8kiqKSi9010bJn56SkLc0m1o3Pj48SPUBAGlBAwsAkBr9/f1Lm01dq3Ss1hiV/PJqtXy7Dt6wHUi6bBQVV7vbVZJyKYj3ETO7LpvVNUNDQ/spPwAg6TKkAACQkgvbte72eUnnKdnNq4a7bd6/v+e1O3cO/oDSI0XiycmJ7/f1HfdJ90yvmc5N+LHeI+lFcexv6evLPVivT9zLFAAAJBkrsAAAiRaG/S+WtEHS01IQ7lczGV9XLpe3UnmkXaFQOCeOg02Szk9JyP/aavm6sbHyz6g+ACCJaGABABIpiqLQPbNe0qoUhFuR/IpqtfxZKg/8hkcf1nCDpJNSEG/D3W6dmpr7/t27769TfgBAkrCFEACQKAMDAz2ZTM9a9+DvJZ2b8HCn3G1zo7HvD8fGRu+i+sDv8Hp94t7Fi3OfiuNgnpnOkRQk+dzeTOdns8239PXldtfrEzy8AQCQGKzAAgAkRj5ffJmZbZD01BSEuyWT8UvL5fIOKg8c7ntE/7PMtFHSc1MS8jfMWmsrlcq/U30AQLejgQUA6HqFQuHUOA5ukvSaFIS7XdLbqtXhf6LywNGd/4ZhcZVk10lakoJ4m+52S29v8IEdO3ZMUH4AQLdiCyEAoGtFUTSvr+/497vb5ySdlfBw95nZ1fPm9bxxeHjw51QfOHr1+sS98+f33prJ9DQkXZjwc+LATOe3Wv7WXC53YHJy4i5JziwAAHQbVmABALpSPl9ceWi7YCkF4W6J42DN6OjgMJUHpvu9ZNkZQdDa4G6vSEO87ro7CGxNpTL0faoPAOgmNLAAAF0lDJef7t662Uy/l4Jw7w8Cu3RkZOhLVB6YWYea4hsl9acg3FjSna1WzzvHxrbvovoAgG7AFkIAQFdYsmTJgsWLT7pCiu8005kJD3evma1ftOi4N27f/ottVB+YefX6xLaFCxd8IgiyTUnPkZRNcLgm6ewgiC/O5XL7Jycn7hbbCgEAXfDhBQBARzu4MkKbJSskPFSXdEdPj71naGhojMoD7RFF0WnumZsk/X5KQv6Ru6+t1crfofoAgE5FAwsA0LHCcNnZUrxJ0vO4gAQw2w5tK7xJ0vIUhOuS7mg0gnfv3Dk4TvUBAJ2GBhYAoOOUSqVFU1O6ysxXK/nb3X9p5ldVKuVNklpUH+gsURTNk4J17vZ+ScelIOSHzezGXG7B1Vu3bp1iBgAAOgUNLABAR30uhWFxlWTXSzo54bFyE2Wgi4RhGEnZqyWtSknI97sH62q1wS9TfQBAR1wokAIAQCdYurQ4EAS2UQdvnpxoPMYe6F5h2P8Sd20w04qUhLwljoM1o6ODw1QfANBONLAAAG0VRdHxcZz9YEq2Cz5o5h+pVMobdXAFFoAuNDAw0DM+vusSyT7srr4UhLzPzK7v7c2u3759+wFmAACgHWhgAQDaJQjD4kWS3SjpxITH2nS3W3p7gw/s2LFjgtIDyVAoFPJxHFwj6aKUnFdvN9OllcrwF6g+AGC20cACALThom/ZC+I43ijpGSkI9xtmrbWVSuXfqTzAe1pCbMlk/NJyubyD6gMAZgsNLADArOnv71/abOpapWO1Qk3y91ar5dt18PH0AJItG0XFP3O3qyWdkIJ4H3G3DY3G3o/u2rXrYcoPAJhpGVIAAJhpAwMDPZlMz1p3+7yk85Ts5lXD3TZPTfX+4fj4jruoPpAa8eTkxD253MJPuWfmmenchL/X9ZjpeZlMz5v7+nIP1usT9zIFAAAziRVYAIAZlbIndv1rq+XrxsbKP6PyQLoderLqJkkXpCTkr2Yyvq5cLm+l+gCAmUADCwAwI8IwjKTs1ZJWpSDciuRXVKvlz1J5AL9+rh2GxVWSXS/p5BTE23C3W/fvz1750EPbJyk/AGA6sYUQADCtVqxYMWfu3HlrpMzfSzo34eE+YmZX9/TYH42MDN9D9QH8tnp94t7Fi3OfjuNgnpnOkRQk+drCTOf39MRv6evL7a7XJ37CDAAATBdWYAEApk0+X1xpZjdJWp6CcLc0m1o3Pj48SOUBHI4wLD1T8o2SnpeGeN39m0GQWVupDNLIAgAcMxpYAIBjFkXRae6ZmyT9fgouyX5hZm+rVIa/QOUBHM35dxgWXyfpRskKKYi3KdlnpMb7qtXqg5QfAHC02EIIADhq+Xx+fi53whXudqeksxIe7j4zu3revJ43Dg0N3kf1ARyten3iZ/Pn934ik+lpSLow4efkgaQBKfjzXC53YHJy4i5JziwAABwpVmABAI7Koe2CGyX1pyDcLe6Z1bXajjKVBzCdwnD56e7NDWb2ylRcfJjucbc11erQ96g+AOCIPkNIAQDgSOTzy86QWjen5GLrPvfg0lpt8MtUHsDMvrcWV5rZBkmlFITrku5oNrPvGh9/YCfVBwAcDrYQAgAOy5IlSxYsXnzSFZJ/zszOSHi4e8z8Q4sWLXzLjh3btlF9ADOtXp/YtnDhgk8GQbYp6QJJ2QSHa5LODoL44lwut39ycuJusa0QAHAYHx4AADzhZ0UYFle527VmOiXhsbqkOxqN4N07dw6OU3oA7VAoFE6N4+AmSa9JScg/dve1tVr521QfAPC4FyWkAADweA498n2TpOemINwfumttrTb8XSoPoBPk88WXHbrX4JkpCNcl+zv3zDtrtQdGqD4A4LfRwAIA/I5isbi42Qw+ZOarlfzt5g+Z+YcrlfImSS2qD6CTrFixYs7ERP0v3e2jko5LQch7zeyGXG7B1Vu3bp1iBgAAHkUDCwDw64IwLF4k2Q2STkp4rLGkO1utnneOjW3fRekBdLIoikL3zHpJq1IS8rYgsHUjI0NfovoAAIkGFgDgkEKhcE4cBxt18ObBSf/4u8vM1lQqgz+g8gC6SRj2v9hdG820IiUhb2m1bO3Y2NAQ1QeAdKOBBQCpvxgKT3Dv+YCZr5EUJDlWd40FgX+wUil/SgdXYAFA1xkYGOgZH991iWQfdldfCkLeZ2bXZ7O6ZmhoaD8zAADSiQYWAKRXNoqKq93tKkm5hMfadLdbenuDD+zYsWOC0gNIgv7+/qXNpq6VdFFKzusfkPxt1Wp5C9UHgPShgQUAKRRFpRe6a6PkT09BuF8PgnjtyMjIT6k8gCQqFArnxnFms+TnpiTkr7jb2lpt6D6qDwDpQQMLANJ1kZOP4+AapeO39VXJ31etlj9L5QGkwKMP4bhR0okpiHfK3W5rNPZesWvXrocpPwAkX4YUAEDyDQwM9GQyPWvdg7+XdK6S3bxquNvmqane146P77iL6gNICa/XJ+7N5RZ+2j0zz0znKNn3NcyY6fxMpuctfX253fX6xL1MAQBINlZgAUDChWHxpWa2wV1npSDcr8Sx1o2ODv+cygNIs3y+/9lm2iTpOSkJ+WuZjK8tl8tbqT4AJBMNLABIqDAMIyl7taRVKQj3AcnfW62W/5bKA8B/nOuHYXGVZNdLOjkF8Tbc7db9+7NXPvTQ9knKDwAJ+1AjBQCQLFEUzZOCde52paQFCQ/3ETO7jkerA8DjK5VKi6amdJWZXyIpm4KQRyW/vFot3y7JmQEAkAw0sAAgQfL54sogsJvdtSwF4W5ptWzt2NjQEJUHgCcXhsvONvON7v78lFzq3BUErdUjIyPcDxEAkvCuTgoAoPtFUfQU98xNkl6dgnC3meltlcrwF6k8ABy5fL640sw2SSqmINxY0p3ujXfUarXdVB8AuhdPIQSArr4Iyc/P5U64wt0+J+mpCQ93r5mtnzev501DQ4P3UX0AODr1+sS2+fN7P5nJ9DR08CbvSd5WaJLONstcnMvlDkxOTtwtthUCQNe+oQMAulDKfoO+xT17Sa32wAiVB4Dpc2gF782SXpWSkH8oaU21OvxvVB8AugsNLADoMvn8sjOCoLXB3V6RgnDvjeN47ejoyLeoPADM5GdLcaWZbZBUSkG4LumOZjP7rvHxB3ZSfQDoDjSwAKBLHHqK1OVm/nZJcxIe7h4z/1ClUt4sqUn1AWDmHXyKbfYyd79MUm8KQuazBgC6CA0sAOiC9+owLK6S7DpJSxIeK78VB4A2KxQKp8ZxZr3kr09JyKz2BYBuuCgiBQDQufL5/meZaZOkC1MQLvclAYAOEobFl0q2Ucl/SMijtrhnVtdqO8pUHwA6Dw0sAOhAURQdH8fZD5r5aiX/ibEPmfmHK5XyJkktqg8AnWNgYKBnfHzXJe72EUkLUxDyXjO7obc3u3779u0HmAEA0DloYAFAZwnCsHiRZDdIOinhscaS7nRvvKNWq+2m9ADQuaIoCt0z6yVdlI5rCP+FmV1aqQx/keoDQGeggQUAHaJQKJwbx7ZJsvMS/+Fj9i3J1lQqgz+h8gDQPaKo9CJ33yjpaSkJeUurZWvHxoaGqD4AtPkaghQAQHuVSqVTGg1dJfnFkoKEhzsq+eXVavl2HbxhOwCg+2SjqLja3a6SlEtBvI+Y2XXZrK4ZGhraT/kBoD0ypAAA2noBsLbV0uclPVfJ/qVCw90279/f89qdOwd/QOkBoKvFk5MT3z/hhMV/E8fWJ+lZCf8M65H0ojjWG/r6cqP1+sTPmAIAMPtYgQUAbZCyLRhfy2R8bblc3krlASB50rQF/pB/jWOtHR0d/jnVB4DZQwMLAGbRr90Ed1UKwq1K/r5qtfxZKg8AiZemh5BIB1cW3zo1Nff9u3ffX6f8ADDz2EIIALNgYGCgJ5PpWesefF7SuQkPd8rdNjca+/5wbGz0LqoPAKng9frEvYsX5z4Vx8E8M52jZN/XMWOm87PZ5pv7+nK76/UJHkoCADOMFVgAMMPy+eLLzGyDpKemINyvuNvaWm3oPioPAGn+7Ot/lpk2SbowJSF/PQjitSMjIz+l+gAwM2hgAcAMKRQKp8ZxZr3kr09BuNslf3u1Wt5C5QEAj15rhGFxlWTXSVqSgnib7nZLb2/wgR07dkxQfgCYXmwhBIBpFkXRvL6+49/vbp+TdHbCw91nZlf39NibRkaGeSoTAOA31OsT955wwuJPtVpmZjov4dcfgZnObzb9T3K5XH1ycuJHkpxZAADTgxVYADCN8vniykPbBUspCHdLHAdrRkcHh6k8AODJPyOXnREErQ3u9oqUXGrdZWZrKpXBH1B9AJiGd1VSAADHLoqip7hnbpb0qhSEuy0IbN3IyNCXqDwA4Egd+mXPJknFFIQbS7qz1ep559jY9l1UHwCOHlsIAeAYLFmyZMHixSddcWi74JkJD3evma1ftOi4N27f/ottVB8AcDTq9YltCxcu+EQQZJuSniMpm+BwTdLZQRBfnMvl9k9OTtwtthUCwFG/oQIAjkKKfoPskv2de+adtdoDI1QeADBdDq1gvknSq1MS8o/ctaZWG/4u1QeAI0MDCwCOUBguO9vMN7r781MQ7o/dfW2tVv42lQcAzJR8vrgyCOxmdy1LQbgu6Y5GI3j3zp2D41QfAA4PDSwAOEylUmnR1JSuMvNLlOztDpL0SzO/qlIpb5LUovoAgJkWRdE8KVjnbldKWpCCkPeY+TW53MKPb926dYoZAABPjAYWABzGe2UYFldJdr2kkxMeayzpzmYz+67x8Qd2UnoAwGwLwzCSsldLWpWSkO93D9bVaoNfpvoA8AQXZaQAAB5fPt//bDNt0sGbzCb7A8F0j7utqVaHvkflAQDtFob9LzHTRnedlZKQt7hnVtdqO8pUHwAe43qFFADA74qi6Pg4zn7QzFcr+U9sfdDMP1KplDfq4AosAAA6wsDAQM/4+K5L3O0jkhamIOR9ZnZ9b292/fbt2w8wAwDgP9DAAoDfFIRh8SLJbpR0YsJjbUr2Ganxvmq1+iClBwB0qkKhkI/j4BpJF6XjGsZ/YWZvq1SGv0D1AeAgGlgA8B8nx+fGcWaz5Ocm/rTY/ZtBkFlbqQz+hMoDALpFFJVe6K6Nkj89JSFvaTa1bnx8eJDqA0g7GlgAUq+/v39ps6lrlY7f6tYkf2+1Wr5dBx/jDQBAt8lGUXG1u10lKZeCeB9xtw2t1iMfGR8f30v5AaRVhhQASKuBgYGeTKZnrbt9XtJ5SnbzquFum/fv73ntzp2DP6D6AIAuFk9OTny/r++4T7pnes10bsI/w3vM9LwgyL65ry/3YL0+cS9TAEAasQILQCqFYf+L3bXRTCtSEO5XWy1fOzZW/hmVBwAkTaFQOCeOg42SLkhJyHyuA0glGlgAUiWKotA9s17SqhSEW5H8imq1/FkqDwBIuEcfwnKDpJNSEG/D3W6dmpr7/t27769TfgBpwBZCAKmwYsWKOXPnzlvjHvy9pKTfpP0Rd/urRmPfH42Njd5F9QEAKeD1+sS9ixfnPhXHwTwznSMpSPJ1nJnOz2abb+nry+2u1yd4KAuAxGMFFoDEy+eLLzOzjZLOTEG4PK0IAJB6YVh6puSbJD03JSF/w6y1tlKp/DvVB5BUNLAAJFahUDg1joObJL0mBeFuN9OllcrwF6g8AAAHr3XCsLjK3a410ykpiLfpbrf09gYf2LFjxwTlB5A0bCEEkDj5fH5+LnfCFe72OUlnJTzcfWZ29bx5PW8cGhq8j+oDAPAf6vWJe+fP770tk+lpSLow4dc/gZnOb7X8rblc7sDk5MRdkpxZACApWIEFIFHy+eJKM9sgqZSCcLfEcbBmdHRwmMoDAPBk5wjLzpBaN5vZK9MQr7vuNrO11erQ96g+gCSggQUgEcJw+enuzQ0pOSm93z1YV6sNfpnKAwBwZA79smujpP4UhBtLurPV6nnn2Nj2XVQfQDdjCyGArrZkyZIFixefdIUUf87Mzkh4uBNm/qFFixa+ZceObduoPgAAR65en9i2cOGCTwRBtinpAknZBIdrks4OgvjiXC63f3Jy4m6xrRBAF7+hAUBXvn+FYfF1km6UrJDwWF3SHY1G8O6dOwfHKT0AANMjiqLT3DM3Sfr9lIT8Y3dfU6uVv0P1AXTdBSApANBtDj0ae6Ok56Ug3B+5a02tNvxdKg8AwMw4tK3wJknLUxCuS7qjp8feMzQ0NEb1AXQLGlgAukaxWFzcbAYfMvPVSv4W6F+a+VWVSnmTpBbVBwBgZq1YsWLOxET9L93to5KOS0HIe83shlxuwdVbt26dYgYA6HQ0sAB0xXtVGBZXSXa9pJMTHis3WwUAoI3CMIyk7NWSVqUk5PuDwC4dGRn6EtUH0NEXhaQAQCdburQ4EAS2SQdvsppo7ro7CGxNpTL0fSoPAEB7hWH/i9210UwrUhLyljgO1oyODg5TfQCdiAYWgA49aQxPcO/5gJmvkRQkOVZ3jQWBf7BSKX9KB1dgAQCADjAwMNAzPr7rEsk+7K6+FIS8z8yuz2Z1zdDQ0H5mAIBOQgMLQKfJRlHxz9ztakknJDzWprvd0tsbfGDHjh0TlB4AgM7U39+/tNnUtZIuSsk11HZJb6tWh/+J6gPoFDSwAHSMQmHZC+I43ijpGSkI9xtmrbWVSuXfqTwAAJyrdKgtmYxfWi6Xd1B9AO1GAwtAB5wMFvJxHFyjdPxWsyb5e6vV8u06+BhrAADQXYIwLF4k2Y2STkxBvFPudlujsfeKXbt2PUz5AbRLhhQAaJeBgYGeTKZnrRR8XtJ5SnbzquFum6emev9wfHzHXVQfAICu5fX6xL253MJPu2fmmekcJft+nRkznZ/J9Ly5ry/3YL0+cS9TAEA7sAILQFuEYf9L3LUhJU/2+dc41trR0eGfU3kAAJLl0BOTN0p6TkpC/lom42vL5fJWqg9gNtHAAjCrwjCMpOzVklYlP1ofkfT+arX8WSoPAECyr6vCsLhKsuslnZyCeBvuduv+/dkrH3po+yTlBzArb7SkAMBsiKJonhSsc7f3Szou4eE+YmbX8QhqAADSpVQqLZqa0lVmvlrpuF3LqOSXc29PALOBBhaAGZfPF1ea2U2Slqcg3C3NptaNjw8PUnkAANIpDJedLcWbJD0vDfG6+zeDILO2Uhn8CdUHMFNoYAGYMVEUneaeuVnSq1Nw6vYLM7u0Uhn+IpUHAADSo7/E02bJCikIN5Z0p3vjHbVabTfVBzDdeAohgBk4WcvPz+VOuMLdPifpqQkPd6+ZrZ83r+eNQ0OD91F9AADwqHp9Ytv8+b2fyGR6Gjp4k/dsgsM1SWebZS7O5XIHJicn7hbbCgFM85sMAEybQ9sFN0rqT0G4W9wzq2u1HWUqDwAAnkgYLj/dvXWzmX4vFReapnvctbZaHf43qg9gWt5XSAGA6ZDPLzsjCFob3O0VKQj3PndfV6uV/4XKAwCAIztnKq40sw2SSikI1yXd0Wxm3zU+/sBOqg/gWNDAAnBMlixZsqCnZ9673f29kuYkPNw9Zv6hSqW8WVKT6gMAgKNx8OnM2cvc/TJJvSkI+dFzqE2SWswAAEeDBhaAo37/CMPiKsmuk7Qk4bG6pDsajeDdO3cOjlN6AAAwHQqFwqlxnFkv+etTEvK97r6mVit/m+oDOOILUFIA4Ejl8/3PMtNGSc9NQbg/lLSG+zcAAICZO7cqvuzQtsKnpiTkLe7ZS2q1B0aoPoDDRQMLwGErFouLm83gQ2a+Wsl/iulDZv5hlroDAIDZMDAw0DM+vusSd/uopONSEPJeM7uhtze7fvv27QeYAQCeDA0sAIcjCMPiRZLdIOmkhMcaS7rTvfGOWq22m9IDAIDZFEVR6J5ZL2lVSkLeZmaXVipD/0z1ATwRGlgAnlChUDgnjoNNks5PwVviXWa2plIZ/AGVBwAA7RRFpRe5+0ZJT0tJyFtaLVs7NjY0RPUBPObVGikA8FjCMDzBvecDZr5GUpDwcEclv7xaLd+ugzdsBwAA6ATZKCquluzD7upLQbyPmNl12ayuGRoa2k/5Afy6DCkA8BgnSmulzD+Y6YVKdqO74W6b9+/vee3Onay6AgAAHSeenJz4/uLFi/5HHOtkSc9I+LlZj6QXxbHe0NeXG63XJ37GFADwKFZgAfiVKCq90F0bJX96CsL9WhDE60ZGRn5K5QEAQDcoFArnxrFtkuy8lIT8lTjWutHR4Z9TfQA0sACoUCjk4zi4RtJFKXhfqEr+vmq1/FkqDwAAutCjD9e5UdKJKYi34W63Nhp7r9i1a9fDlB9IL7YQAik2MDDQk8n0rHUP/l7SuUrBdsFGY98fjo2N3kX1AQBAl/J6feLeXG7hp90z88x0jpJ9v9KMmc7PZHre0teX212vT9zLFADSiRVYQEqFYfGlZrbBXWelINyvuNvaWm3oPioPAACSJJ/vf7aZNkq6MCUhfz0I4rXcBgJIHxpYQOpOck4tmDU/JmlVCsJ9QPK3VavlLVQeAAAk+bouDIurJLtO0pIUxNt0t1v2789e+dBD2ycpP5CSNzpSAKRDFEXzpOxl7n6ZpN6Eh7vPzK7nEcwAACBNSqXSoqkpXWXml0jKJj1ed42Z+WXVavl2Sc4MAJKNBhaQAvl8cWUQ2M3uWpaCcLe0WrZ2bGxoiMoDAIB0nvuVzjTTBslfnpLL2rvMbE2lMvgDqg8k+EgnBUByRVH0FPfMzZJelYJwt5nZpZXK0D9TeQAAgIO/xDSzTZKKKQg3lnSne+MdtVptN9UHkoenEAKJPFnJz8/lTrjC3T4n6cyEh7vXzNYvWnTcGx944Bf3U30AAICD6vWJbQsXLvhEEGSbkp6jZG8rNElnm2UuzuVyByYnJ+4W2wqBxB3kABIkRb9pc8n+zj3zzlrtgREqDwAA8PhStjJfkn7orrW12vB3qT6QDDSwgIRI2b0Ofuzua2u18repPAAAwJGcM6bq3qgu6Y5GI3j3zp2D41Qf6G5sIQS6XKlUWjR//qJrzfy/S3pKwsPdY+aXV6vli+v1iWGqDwAAcGTq9YltfX0LP2GWaUq6QCnYVpjJ+MW5XG7/5OTEPTp4rywAXXpAA+jS4zcMi6sku07SkoTH6pLuaDaz7xoff2AnpQcAADh2+fypBbPmxyStSknI97n7ulqt/C9UH+jCC2BSAHTjyUb/s820UdKFiX+TMt3jbmuq1aHvUXkAAIDpF4bFl5rZBnedlZKQt7hnVtdqO8pUH+iia0NSAHSPKIqOj+PsB818tZK/BfghM/9wpVLeKJZ6AwAAzKiBgYGe8fFdl7jbRyQtTEHI+8zs+t7e7Prt27cfYAYAnY8GFtAdgjAsXiTZjZJOTHissaQ73RvvqNVquyk9AADA7CkUCvk4Dq6RdFE6rhf9F2b2tkpl+AtUH+hsNLCAzj+JODeObZNk5yX+9MH9m0GQWVupDP6EygMAALRPFJVe6K6Nkj89JSFvaTa1bnx8eJDqA52JBhbQofr7+5c2m7pW6fjt16jkl1er5dt18IbtAAAAaL9sFBVXu9tVknIpiPcRM7sum9U1Q0ND+yk/0FkypADoyBOFte72eUnnKdnNq4a7bd6/v+e1O3cO/oDSAwAAdJR4cnLi+319x33SPdNrpnMTfm7aI+lFcexv6evLPVivT9zLFAA6ByuwgA4SRaUXuftGSU9LQbhfzWR8Xblc3krlAQAAOl+hUDgnjoNNks5PScj/2mr5urGx8s+oPtB+NLCADhBFUeieWS9pVQrCrUh+RbVa/iyVBwAA6DqPPlzoBkknpSDehrvdOjU19/27d99fp/xA+7CFEGijgYGBnkymZ6178PeSzk14uFPutrnR2PeHY2Ojd1F9AACAruT1+sS9ixfnPhXHwTwznSMpSPI1s5nOz2abb+nry+2u1yd42BDQJqzAAtokny++zMw2SHpqCsLdksn4peVyeQeVBwAASNI5bf+zzLRR0nNTEvI3zFprK5XKv1N9YHbRwAJmWaFQODWOg5skvSYF4W6X9LZqdfifqDwAAEByryvDsLhKsuskLUlBvE13u6W3N/jAjh07Jig/MDvYQgjMkiiK5vX1Hf9+d/ucpLMSHu4+M7t63ryeNw4PD/6c6gMAACRbvT5x7/z5vbdmMj0NSRcm/FozMNP5rZa/NZfLHZicnLhLkjMLgJnFCixgFuTzxZWHtguWUhDuljgO1oyODg5TeQAAgDSe+y47IwhaG9ztFWmI1113B4GtqVSGvk/1gZlDAwuYQWG4/HT31s1m+r0UhHt/ENilIyNDX6LyAAAAOPRL3I2S+lMQbizpzlar551jY9t3UX1g+rGFEJgBS5YsWbB48UlXSPGdZjoz4eHuNbP1ixYd98bt23+xjeoDAABAkur1iW0LFy74RBBkm5KeIymb4HBN0tlBEF+cy+X2T05O3C22FQLTfpABmEYHf9OkzZIVEh6qS7qjp8feMzQ0NEblAQAA8HiiKDrNPXOzpFenJOQfufvaWq38HaoPTA8aWMA0CcNlZ0vxJknP4wMZAAAA+F2HthXeJGl5CsJ1SXc0GsG7d+4cHKf6wLGhgQUco1KptGhqSleZ+Wolf1vuL838qkqlvElSi+oDAADgSEVRNE8K1rnb+yUdl4KQ95rZDbncgqu3bt06xQwAjg4NLOAYjp8wLK6S7HpJJyc8Vm5KCQAAgGkVhmEkZa+WtColIfPQI+BYLsBJAXDkli4tDgSBbdTBm1EmGo8FBgAAwEwKw/6XuGuDmVakJOQtcRysGR0dHKb6wOGjgQUcgSiKjo/j7AdTsl3wQTP/SKVS3qiDK7AAAACAGTEwMNAzPr7rEsk+7K6+FIS8z8yu7+3Nrt++ffsBZgDw5GhgAYcnCMPiRZLdKOnEhMfadLdbenuDD+zYsWOC0gMAAGC2FAqFfBwH10i6KCXXq9slva1aHf4nqg88MRpYwJN+iC57QRzHGyU9IwXhfsOstbZSqfw7lQcAAADn4LNmSybjl5bL5R1UH3hsNLCAx9Hf37+02dS1Ssdvf2qSv7daLd+ug4/7BQAAANotG0XFP3O3qyWdkIJ4H3G3DY3G3o/u2rXrYcoP/KYMKQB+08DAQE8m07PW3T4v6Twlu3nVcLfNU1O9fzg+vuMuqg8AAIAOEk9OTtzT13fcp90zvWY6N+Hn5j1mel4m0/Pmvr7cg/X6xL1MAeA/sAIL+DVh2P9id21MyRNQ/rXV8nVjY+WfUXkAAAB0ukNPAt8k6YKUhPzVTMbXlcvlrVQfoIEFSJLCMIyk7NWSVqUg3IrkV1Sr5c9SeQAAAHTbNWwYFldJdr2kk1MQb8Pdbt2/P3vlQw9tn6T8SDO2ECLVVqxYMWfu3HlrpMzfSzo34eE+YmZXm7X+uFoduYfqAwAAoBvV6xP3Ll6c+3QcB/PMdI6kIMnX7GY6v6cn/pO+vtyuen3iJ8wApBUrsJBa+XxxpZndJGl5CsLd0mxq3fj48CCVBwAAQFKEYemZkm+U9Lw0xOvu3wyCzNpKZZBGFlKHBhZSJ4qi09wzN0n6/RR8xP3CzN5WqQx/gcoDAAAgqde1YVh8naQbJSukIN6mZJ+RGu+rVqsPUn6kBVsIkRr5fH5+LnfCFe52p6SzEh7uPjO7et68njcODQ3eR/UBAACQZPX6xM/mz+/9RCbT05B0YcKvdQNJA1JwcS6XOzA5OXGXJGcWIOlYgYVUOLRdcKOk/hSEu8U9s7pW21Gm8gAAAEibMFx+untzg5m9MhUX9aZ73G1NtTr0PaqPRM91UoAky+eXnSG1bk7Jh9d97sGltdrgl6k8AAAAuBYorjSzDZJKKQjXJd3RbGbfNT7+wE6qjyRiCyESacmSJQsWLz7pCsk/Z2ZnJDzcPWb+oUWLFr5lx45t26g+AAAAINXrE9sWLlzwySDINiVdICmb4HBN0tlBEF+cy+X2T05O3C22FSKBkxxI1JwOw+Iqd7vWTKckPFaXdEejEbx7587BcUoPAAAAPLZCoXBqHAc3SXpNSkL+sbuvrdXK36b6SMzFPilAUhx6hO4mSc9NQbg/dNfaWm34u1QeAAAAODz5fPFlh+6Ne2YKwnXJ/s49885a7YERqo9uRwMLXa9YLC5uNoMPmflqJX9b7ENm/uFKpbxJUovqAwAAAEdmxYoVcyYm6n/pbh+VdFwKQt5rZjfkcguu3rp16xQzAN2KBha6WRCGxYsku0HSSQmPNZZ0Z6vV886xse27KD0AAABwbKIoCt0z6yWtSknI28zs0kpl6J+pProRDSx0pUKhcE4cBxt18GaMST9M7zKzNZXK4A+oPAAAADC9wrD/xe7aaKYVKQl5S6tla8fGhoaoPrrqypgUoLs+XMIT3Hs+YOZrJAVJjtVdY0HgH6xUyp/SwRVYAAAAAGbAwMBAz/j4rksk+7C7+lIQ8j4zuz6b1TVDQ0P7mQHoBjSw0C2yUVRc7W5XScolPNamu93S2xt8YMeOHROUHgAAAJgd/f39S5tNXSvpopRcLz8g+duq1fIWqo9ORwMLHS+KSi9010bJn56CcL8eBPHakZGRn1J5AAAAoD0KhcK5cZzZLPm5KQn5K+62tlYbuo/qo1PRwEInf2jk4zi4Run47UdV8vdVq+XPUnkAAACgIzz60KgbJZ2Ygnin3O22RmPvFbt27XqY8qPTZEgBOs3AwEBPJtOz1j34e0nnKtnNq4a7bZ6a6n3t+PiOu6g+AAAA0DG8Xp+4N5db+Gn3zDwznaNk34c3Y6bzM5met/T15XbX6xP3MgXQSViBhY4Shv0vMdNGd52VgnC/EsdaNzo6/HMqDwAAAHS2fL7/2WbaJOk5KQn5a5mMry2Xy1upPjoBDSx0hDAMIyl7taRVKQj3AcnfW62W/5bKAwAAAN11DR2GxVWSXS/p5BTE23C3W/fvz1750EPbJyk/2nrwkQK0UxRF86RgnbtdKWlBwsN9xMyu41G1AAAAQHcrlUqLpqZ0lZlfIimbgpBHJb+8Wi3fLsmZAWgHGlhom3y+uDII7GZ3LUtBuFtaLVs7NjY0ROUBAACAZAjDZWeb+UZ3f346Ira7gqC1emRkhPv3YvZnHynAbIui6CnumZskvToF4W4z09sqleEvUnkAAAAgmfL54koz2ySpmIJwY0l3ujfeUavVdlN9zBaeQohZfFPPz8/lTrjC3T4n6akJD3evma2fN6/nTUNDg/dRfQAAACC56vWJbfPn934yk+lp6OBN3pO8rdAknW2WuTiXyx2YnJy4W2wrxCxNPGDGpew3Elvcs5fUag+MUHkAAAAgXQ7tOLlZ0qtSEvIPJa2pVof/jepjJtHAwozK55edEQStDe72ihSEe28cx2tHR0e+ReUBAACAtF8LFVea2QZJpRSE65LuaDaz7xoff2An1cdMoIGFGXHoqRyXm/nbJc1JeLh7zPxDlUp5s6Qm1QcAAAAgPfrU9exl7n6ZpN4UhMy1EWYMDSxM+5wKw+Iqya6TtCThsfJbBgAAAABPqlAonBrHmfWSvz4lId/n7utqtfK/UH1MFxpYmDb5fP+zzLRJ0oUpCJd93gAAAACO8Jqp+LJD2wqfmpKQt7hnVtdqO8pUH8eKBhaOWRRFx8dx9oNmvlrJf7LlQ2b+4UqlvElSi+oDAAAAOBIDAwM94+O7LnG3j0hamIKQ95rZDb292fXbt28/wAzA0aKBhWMRhGHxIslukHRSwmONJd3p3nhHrVbbTekBAAAAHIsoikL3zHpJF6Xj2tx/YWaXVirDX6T6OBo0sHBUCoXCuXFsmyQ7L/EHidm3JFtTqQz+hMoDAAAAmE5RVHqRu2+U9LSUhLyl1bK1Y2NDQ1QfR3RtTgpwJEql0imNhq6S/GJJQcLDHZX88mq1fLsO3rAdAAAAAGZCNoqKq93tKkm5FMT7iJldl83qmqGhof2UH4cjQwpwBG+oa1stfV7Sc5Xs5mfD3Tbv39/z2p07B39A6QEAAADMsHhycuL7J5yw+G/i2PokPSvh11w9kl4Ux3pDX19utF6f+BlTAE+GFVh4Uilb0vq1TMbXlsvlrVQeAAAAQDuk6ZYth/xrHGvt6Ojwz6k+Hg8NLDyulN1UsCr5+6rV8mepPAAAAIAOkKaHZkkHd8LcOjU19/27d99fp/z4bWwhxO8YGBjoyWR61roHn5d0rpLdvJpyt82Nxr4/HBsbvYvqAwAAAOgQXq9P3JvLLfy0e2aemc5Rsu9DnDHT+dls8y19fbnd9foED9HCb2AFFn5DGBZfKtlGSU9NQbhfcbe1tdrQfVQeAAAAQCfL5/ufZaZNki5MSchfD4J47cjIyE+pPiQaWDikUCicGseZ9ZK/PgXhPiD526rV8hYqDwAAAKCbruHDsLhKsuskLUlBvE13u6W3N/jAjh07Jih/urGFMOWiKJrX13f8+93tc5LOTni4+8zs6p4ee+PIyDBPuQAAAADQder1iXtPOGHxp1otMzOdl/Dr+sBM5zeb/ie5XK4+OTnxI0nOLEgnVmClWD5fXGlmGySVUhDuljgO1oyODg5TeQAAAADJuKZbdkYQtDa42yvSEbHdZWZrKpXBH1D99KGBlUJRFD3FPXOzpFelINxtQWDrRkaGvkTlAQAAACTRocUJmyQVUxBuLOnOVqvnnWNj23dR/fRgC2GKLFmyZMHixSddcWi74JkJD3evma1ftOi4N27f/ottVB8AAABAUtXrE9sWLlzwiSDINiU9R1I2weGapLODIL44l8vtn5ycuFtsK0wFVmClRIo68i7Z37ln3lmrPTBC5QEAAACkyaEdNzdJenVKQv6Ru9bUasPfpfrJRgMr4cJw2dlmvtHdn5+CcH/s7mtrtfK3qTwAAACANMvniyuDwG5217IUhOuS7mg0gnfv3Dk4TvWTiQZWQpVKpUVTU7rKzC9RspePStIvzfyqSqW8SVKL6gMAAADAwafOS8E6d7tS0oIUhLzHzK/J5RZ+fOvWrVPMgGShgZXAmoZhcZVk10s6OeGxuqQ7ms3su8bHH9hJ6QEAAADgd4VhGEnZqyWtSknI97sH62q1wS9T/eSggZUg+Xz/s820SQdv2pfsiWu6x93WVKtD36PyAAAAAPDkwrD4UjPb4K6zUhLyFvfM6lptR5nqJ6APQAq6XxRFx8dx9oNmvlrJf7Lkg2b+kUqlvFEHH58KAAAAADhMAwMDPePjuy5xt49IWpiCkPeZ2fW9vdn127dvP8AM6F40sLpbEIbFiyS7UdKJCY+1KdlnpMb7qtXqg5QeAAAAAI5eoVDIx3FwjaSL0tEb8F+Y2dsqleEvUP3uRAOre99szo3jzGbJz03824z7N4Mgs7ZSGfwJlQcAAACA6RNFpRe6a6PkT09JyFuaTa0bHx8epPrdhQZWl+nv71/abOpapaNLXpP8vdVq+XYdvGE7AAAAAGD6ZaOouNrdrpKUS0G8j7jbhkZj70d37dr1MOXvDhlS0B0GBgZ6Mpmete72eUnnKdnNq4a7bd6/v+e1O3cO/oDqAwAAAMCMiicnJ77f13fcJ90zvWY6N+HXnD1mel4m0/Pmvr7cg/X6xL1Mgc7HCqwuEIb9L3bXRjOtSEG4X221fO3YWPlnVB4AAAAAZl+hUDgnjoONki5ISchch3YBGlgdLIqi0D2zXtKqFIRbkfyKarX8WSoPAAAAAG336EPDbpB0UgribbjbrVNTc9+/e/f9dcrfedhC2IFWrFgxZ+7ceWvcg7+XlPSbtD/ibn/VaOz7o7Gx0buoPgAAAAB0BK/XJ+5dvDj3qTgO5pnpHElBguPNmOn8bLb5lr6+3O56fYKHiHUYVmB1mHy++DIz2yjpzBSEy9MfAAAAAKALhGHpmZJvkvTclIT8DbPW2kql8u9UvzPQwOoQhULh1DgObpL0mhSEu91Ml1Yqw1+g8gAAAADQNSwMi6vc7VoznZKCeJuSfUZqvK9arT5I+duLLYRtls/n5+dyJ1zhbp+TdFbCw91nZlfPm9fzxqGhwfuoPgAAAAB0l3p94t7583tvy2R6GpIuVLL7CoGkASn481wud2BycuIuSc4saA9WYLVRPl9caWYbJJVSEO6WOA7WjI4ODlN5AAAAAEjCNe2yM6TWzWb2yjTE6667zWxttTr0Pao/+2hgtUEYLj/dvbkhJQf5/e7Bulpt8MtUHgAAAACS59DijI2S+lMQbizpzlar551jY9t3Uf3ZwxbCWbRkyZIFixefdIUUf87Mzkh4uBNm/qFFixa+ZceObduoPgAAAAAkU70+sW3hwgWfCIJsU9IFkrIJDtcknR0E8cW5XG7/5OTE3WJb4awlHrOQ5zAsvk7SjZIVEh6rS7qj0QjevXPn4DilBwAAAID0iKLoNPfMTZJ+PyUh/9jd19Zq5W9T/ZlFA2uGHXrU6EZJz0tBuD86dOB+h8oDAAAAQHod2lZ4k6TlKQjXJd3R02PvGRoaGqP6M4MG1gwpFouLm83gQ2a+WsnfqvlLM7+qUilvktSi+gAAAACAFStWzJmYqP+lu31U0nEpCHmvmd2Qyy24euvWrVPMgOlFA2sGchqGxVWSXS/p5ITHys3rAAAAAABPKAzDSMpeLWlVSkK+Pwjs0pGRoS9R/elDA2saFQqFc1qt4FYznZOCcL/rrjW12vCPqDwAAAAA4Mnk88teYRZvkHRGOiL2/9XTE7yNbYXTg6cQToPly5fn5s3LXSfZJ8wUJTzcB838fdVq+f+p1ydGqT4AAAAA4HDU63seOP300/567969D5rZhZLmJjtie1oc6625XO6RycmJu8TTCo8tm6Tg2By8MZ02p+Dpgk13u6W3N/jAjh07Jqg8AAAAAOBo9ff3L202da2ki5SO3sR3Wi3/i7Gx8s+o/tGhgXWUli5d1m/W+msze2UKwv1qJuPryuXyVioPAAAAAJguhcKyF8RxvFHSM1IQ7gFJH6tWh9dLalL9I0MD6yhyFkXFt7rbDZIWJjzWmuTvrVbLt4uljgAAAACAmRGEYfEiyW6UdGIK4v2JFLy5Wh28l9IfPu6BdQSWLl3Wn8vl/layS5XsvboNd9s8NdX7h+PjO+6i8gAAAACAGeT1+sS9udzCT7tn5h16MFqQ4HiXSP4nuVyuOTk58T2xYOSwsALrMEVR8S9SsurqC2att1UqlV9QdQAAAADA7F9/l86PY990qJGVdN9uNvXm8fHhQSr/xGhgPYl8Pn9iEGQ/5W7/OdmR+oik91er5c9SdQAAAABAm1kYFldJdr2kkxMdqGlS0iWVyvCdlP3xsYXwCYRh8aVmmS9Jdm6Cw3zEzK7u6bE/GhkZvoeqAwAAAAA6Qb0+ce8JJyz+VKtl8xO+rXCupD/s61t0am/vnH/Zt2/fFNX/XazAegwrVqyYs2fPw+slvT3hOfr7OA7eMTo6OEzVAQAAAACdKgxLz5R8o6TnJTzU+6Tgj7nB+++igfVb8vlTC2bN/yXpOcmN0n9hZpdWKsNfpOIAAAAAgO65Zi+uNNNmyQoJDnO/ma+rVMqfpOL/gS2Ev+bglkH/kqQzExriXjNbP29ezxuHhgbvo+IAAAAAgG5Sr09smz+/9xOZTE9DBxeeZBMYZlaylX19i07N5Rb+8+TkZJPKswLrV3mIouJ73O1qJXdP7Rb3zOpabUeZcgMAAAAAul0YLj/dvXWzmX4vwWH+sNnU63hKIQ0sRVF0vHv2f0r+8oSG+JMgCNaOjAx+k7c3AAAAAEDShGHxdZLdKKmY0BB3m9nrK5Whr6e5zpl0T/Llp0v6F0nnJzC8PWZ+ebVavnhyck/qO7UAAAAAgGSq1yd+lsst/GuzTFPSBUretsL5ki5auHDRL+v1iR+ktc6pXYEVRf2vdtfnJOUSFppLuqPRCN69c+fgOG9lAAAAAIC0KBQKp8ZxcJOk1yQzQvtEtTq0WlLq7ouVxgaWhWH/FZKuUuLud2V3mdmaSmUwtR1ZAAAAAADCsPgayW6SdGrSYnPXP/f2Zv54x44dE2mqadoaWNl8vv8WM701YXE9ZOYfrlTKmyS1eKsCAAAAAKTdwMBAz/j4rkvc7aOSjktSbO7aKmVenaYHtaWmgXXSSScd19Mz/28T9nSCWNKd7o131Gq13bw9AQAAAADwm6IoCt0z6yWtSlhoNSl4dbU6eG8a6piKBlahUMjHcfBPkp6ZoNKxXRAAAAAAgMMUhv0vlrRB0tMSFNYeM/uDSmXoG0mvX+KfQhhF0dPdM9+QdHpCQho180uq1eF1k5N7qrwFAQAAAADw5Or1iaHTTz/tUw8/vG/CTBdImpuAsHolvaGvL3dfvT7xsyTXL9ErsAqFwrlxHHxB0okJCKfhbrfu35+98qGHtk/y1gMAAAAAwNHp7+9f2mzqWkkXKRm9kZa7/lutNvzppNYssQ2sQ0sD/4+khQkI52tBEK8bGRn5KW8zAAAAAABMj4MLX2yTZOclIByX7J3V6tDHk1irRDaw8vnSfzbz/6mDS+m6WVXy91Wr5c/ytgIAAAAAwIwIwrB4kWQ3KgE7uNzt2lpt6PKkFSlx98AKw+IqM31O0pwuDmO/pGvcG39Uq1Xu5r0EAAAAAIAZ4/X6xL0LFy7471JmsZmepS5e8GOm5/X1LZpTr098NUlFStQKrHy+9Mdmfoe6uzH3FXdbW6sN3cd7CAAAAAAAsyuf73+2mTZKurCb4zDT9ZXK8HuSUpfErMAKw9JbzPyzXRzTDkmrqtXhK+v1Pbt5ywAAAAAAYPbV6xOj9frE3yxcuKhspudKmt+loTw3l1tsk5N7vp6EuiSigZXPl95g5n/TpfE03W1To7Hv9WNjta28VQAAAAAA0HZer0/8aPHi3Kfcg8WSBro0jhf19S2K6/WJb3Z7Qbq+gRVF/W+SdHuXxvLdIIhfU62WP7tv374p3h8AAAAAAOgcExMT++v1PVtyuUV3SXq+pFwXhvHihQtzj9TrE9/p5lp0dQMrny/9gaTPdWEce931zlpt+JLJyclx3hIAAAAAAOhck5MTv5g795RPZzLN48x0rrrsnuJm9rJcLjc6OTlxT7fWoGtv4p7PF19mZlskze2yoX/brPWnlUplO28BAAAAAAB0l3y+/8Ig0CfddVaXDb0l+Ruq1fLfdmPerVsni5m+LGlBFw17v6QrqtXhmyTFHPIAAAAAAHSnUqnU22z6De66RN3VW5lyD1bWaoNf7racd10Dq1AoPC2Og29JWtQ1STb9TAreUKkM/oTDHAAAAACAZMjnC//JLPiMpBO6aNh7zYKXVCqDP+imXHdVA6tQKOTjOPg3ScUuGvbtzeb+vxwfH9/LoQ0AAAAAQLKcfPKyJdls63+Y2Su7aNi7zVrP6abbG3VNA2v58uW5Awfib0n+9C4Z8h4z/VmlMvwPHM4AAAAAACRaEIb9l0u6SlK2S8Z8XybjF5bL5V92RYK7YZArVqyYc+BA6++7qHl1r1nrXJpXAAAAAACkQlytDl8t2fMlVbpkzGe2WvYPK1asmNMNg+2KBtaePQ9/StJLuqP+9ln3xoU8ZRAAAAAAgHSpVoe+19Nj50r6bpcM+YV79jz8aXXBDr1Mpw8wikqXS3pHFxS96a5La7Xh99Xr9QaHLQAAAAAA6bNnz56Hi8XojkcemVpqpmd3wZCfsXBhbl+9PvGdTh5kR3fYoqj/Ve76R3V+o+1hyd9QrZa3cKgCAAAAAABJiqLiX7jbRkmdvk0vlvw/d3Jfo2MbWKecUjwrk7HvSsp1eJGr7lpZqw3/iEMTAAAAAAD8uny++Dwz+ztJSzp8qPVWyy8YGyv/rBMHF3RmcfMnZjL2T+r45pXdlc3qXJpXAAAAAADgsdRq5W+3WnaBpPs6fKgLMxn7/PLlyzuyFxN05piyd0gqdXJV3fUP7lMvGh4eHuVwBAAAAAAAj2dsbGgok/ELJX2nw4d65oED8e3qwB17HXdvqTDs/7CZ/VknV9PdNtRqw39er9enOAwBAAAAAMCTmZiY2L9w4YL/aZZ5pqTTO3ioZ/T1LarX6xP/1kmD6qiOWhT1v/rQTduDDi2iu2ttrTa8mUMPAAAAAAAcqYGBgZ6xsQc/JfmbO3iYDXd/ca1W7pgVYx3TwFq6dFl/EMT3SDqhQ4vn7lpTqw3fwuEGAAAAAACOgUVR6YPu/sFOHaC7xubMsWcNDQ2NdcJ4OmIL4cDAQM/evQ9/UbKndGjdWpL/aa1W/hTHGAAAAAAAOFaTk3u+vnDhon1menknjs9Mx7Va/vR6feLOThhPRzSwMpm56yX91w6dUy3J/7RaLd/O4QUAAAAAAKZLvT7x3b6+xZOSXtmJ4zOz0/r6Fu+p1/d8r+1jafcAoqj0Inf/V3Xmfa8aZnpDpTL8eQ4rAAAAAAAwE8Kw/x2SbuzQ4R2QgvOr1cF72zmItq7AOuWU004ya31FUl8HFmjK3f6oWh3+Bw4lAAAAAAAwU+r1iX9buHDRXjO9ogOHlzXzF/T1Lfzvk5OTzXYNop0NLMvlFv5vSc/uwOIcMNN/qVaHt3AYAQAAAACAmXZwO+GipqSXdODwTnIP+ur1iS+2awBta2BFUfGtkr2jA4sSS/6marX8fzh8AAAAAADAbKnXJ761cGHOzezFnTY2M53X17foW/X6xGA7Xr8tDaxTTimVzPT/SZrbeQXxt1er5c9w2AAAAAAAgNlWr098o68vt0iyCzpsaCbphXPnnvKZffsenJrtF29HA8sWLer7X5Kd1YHz5CPVavkaDhcAAAAAANAu9frEl/v6Fp0q6RkdNrRF2WwzV69PfGG2X3jWn/wXRcW17taJNyW7vVod/iCHCQAAAAAAaDNftOi4P5f0rx04tr/M55fNel/HZvPFTjmlVMpk/KeSFnRW7u3/VqtDr5XU5BgBAAAAAACdoFgsLm427VtmWtFJ4zLTYBw3nlar1fbN1mvO6gqsTMY3quOaV/p+s/nIG0XzCgAAAAAAdJByufzLIGi9UvKRThqXu5ZJ2Stn8zVnbQVWPl96g5l/rsPmwv2ZjD+nXC7/ksMCAAAAAAB0oiha9gz3+NuSFnbQsBpBED97ZGTkp7PxYsHsJDo63sw/3mH1fziT8dfSvAIAAAAAAJ2sUhn8ibutkuQdNKyeOA5u1SwtjpqVpxD29S3eKOn5HZRkN9MbR0bK3+QwAAAAAAAAna5e33N/X9+iHkkv6KBhFXO5RZXJyYkfzvQLzXiXLIpK57v7v2mWbxj/xHx9tVp+H9MfAAAAAAB0kSAM+/9R0qs7aEwPmrVOr1QqD81o4DOdWPd4gzqqeaWvVKvlK5nzAAAAAACgy8Q9PfYmSds7aEwnxHH2gzP9IjPawMrn+/9UsvM6KKnD7o03SGox5wEAAAAAQLcZGhra424rzTTZKWMy80uiKHr6TL7GjDWwli9fnjPTxzqoxvsk+4Narbab6Q4AAAAAALpVrTZ0n7u/tYOGlJWCG2byBWbsJu7z5/ddLenlnZNL//NqdfjLTHMAAAAAANDt6vWJrbncooKkZ3fGiOzUhQtzP6zXJ7bNxE+fkRVYS5b0L5O0ulOK6q7PVavl25neAAAAAAAgKRqN/ZdKur9TxmNm10vKzsTPnpEGVjarqyXN7ZD8VYOgtZZpDQAAAAAAkmR8fHxvHPubJE11yJDOyOf73zITP3jatxAWCoVz3e0mdcaTB91Mf1ypjPw70xoAAAAAACTNww9PjPb1LYolvbQTxmOmcxYuXHBbvV5vTOfPnfYVWHEcrFdnNK8k2YZKZfiLTGcAAAAAAJBU1erwNZK+1iHDyUs9035bqWltYEVR/6vUIR0/ST83a76XaQwAAAAAABIuds/8iaQ9nTAYM11eKpUWTefPnNYthAsX5u6ULOyAXDXNgv9UqZSHmcMAAAAAACDp6vVfTuRyuYckW9kBw5nXavn+en3iG9P1A6dtq18+X1xpZv+3Q+p2ZbU6/FGmLwAAAAAASBELw/6vSHpJB4xloqfHSkNDQ3um44dN1xZCCwL7YIcU6yeH9n4CAAAAAACkibvbakkHOmAsuUbD10zXD5uWBlY+X/pP7hrohEKZ2TpJTeYsAAAAAABIm1pt6D53X98hw3n7iSeesXA6ftC0NLCCwK/sjLzY7ZXK0DeYrgAAAAAAIK0WL1643kw/64ChHD937oFpWYV1zPfAyueXvcIs/lK7M2KmyUxGZw4PD48yVQEAAAAAQJqFYekCyb+j6bt91NHa2dNj/UNDQ/uP5YcccxBm8Xs6ozT+fppXAAAAAAAAUrU69D0z/U0HDOXkZtMvOtYfckwNrEKhcK6kl7Y/F/bvlUr5VqYnAAAAAADAQVNTwfsk1ds9Dne9S8fYgzqmfxzHwWUdUA8PAlsjbtwOAAAAAADwKzt3Do67+w0dMJQz8vnCa47lBxx1A6tQKJwq6Q86IAl/MzIy+E2mJQAAAAAAwG9r3iCp0v5x2DuP5V8fdQMrjm2NpEybo98vNT/AZAQAAAAAAPhdtVptn+RXtHscZvaCfL7/2Uf774+qgZXP5+dL9pYOqMPmarVaYToCAAAAAAA8tmq1fIe77m73OMzsvx3tvw2O7gXnvFnS4jbHXW+1eq5lGgIAAAAAADyhOAjs3e0fhr+pVCotOpp/ebRbCC9pd8hm9vGxse27mIMAAAAAAABPrFIZ+rpk/9LmYSxoNuOj2tF3xA2sKCq9SPKntzngh+bMCf6K6QcAAAAAAHB43OMPt38MdokkO9J/d8QNrDj2t7Y7WDO/bseOHRNMPQAAAAAAgMNTq5W/LelrbR7G6UuXFp53pP/oiBpYpVJpkZn+SzujdNdYo3FgE9MOAAAAAADgiH2k3QMIguBPj/jfHMk3N5vxKknz2hukXz0+Pr6X+QYAAAAAAHBkqtXhr0n6dpuH8fqTTjrpuCP5B0fUwHK3P2tzgLuk+FNMNwAAAAAAgKPjHrR7FdZxPT0LXn8k/+CwG1iFQuFcSc9sc4B/XalUHmGqAQAAAAAAHJ1abfDLkr7XzjEEgY5oG+FhN7BarcxFbc7vVDarW5hmAAAAAAAAx8r/qq2v7v68U04plQ73+w+3gZWR/L+2ObH/7/Dw8CgTDAAAAAAA4NhUq+V/kFRp4xAsm43/6HC/+bAaWPn8spea6ZR2JtbdbmZ6AQAAAAAATIumpNvaOQB3++PD/d7DamCZtd7Q5qR+vVYb/hFzCwAAAAAAYHq0Wj2fkLS/jUN45imnFM86nG980gZWqVTqley/tDOh7nYT0woAAAAAAGD6jI1t3yXZ/27nGLLZ4LBuWfWkDaypqfjlknJtjOWBWm3oH5lWAAAAAAAA0ysIWpvaOwJ//WGN88m+wazdq690m6SYKQUAAAAAADC9RkZG7pL0vXa9vrvOiqLotCf7vuyTfD0jaWUb89jq6dGdTCcAAAAAANAtTj552ZJstnWamUIzneJuJ5lpsbv1SN4nWUaK90nBAUmPuMcPSfaQ5MNBEA8dOHBgcNeuXQ/P1njN/DPudkG78uWe+c+SbnzCMT7RF6Oo9CJ3/1r7AtA/12rDr2LqAwAAAACATrNixYo5e/Y8POCuZweBnuWuZ0k6XdJxx/ijXdIOST8y87vd7ZvV6vBdOvjkwGlXKpUWNRo+Kqm3HXk0s29VKkMveMLveaIv5vOlm818XbsmgpneVKkMf45DAgAAAAAAdIBsobDswjiOX+7uLzCzcyXNm6XX3mvmX4nj4P9IU/9Yq9V2T+cPD8P+v5X0ujbltdVq9Sw9eFP5x/YkK7D6d7hrWTtGbqbJOG4srdVq+zg+AAAAAABAO+Tz+flB0PMH7vovktr9oLtHNcz8C3Hsn6nVRr6gaViZlc8X/pNZ8H/aF5L9SbU69D8e96uPP/DSmWb+87YN2/SZSmX4zzlUAAAAAADALAvy+eKFZsEqyd8gaWGnDtRdY0Fgf53N6qahoaE9R/tzBgYGesbGdtckndimOD5Xqw2/6XEL8rhfCOJXtrcEdjvHCwAAAAAAmC2FQuGcMCzdlM/3V83sW5L/hTq4eSVJB28S7x9sNHxHFBUvy+fz84/m59xzzz0NM/2vNsbxcj1Rn+rxvuBu7WxgDVcqQ9/k0AEAAAAAADMsE4bF14Vh/3fjOLhL8kvNdEoXxrHY3a4x6/lFGBZX6UluG/VY3O2ONo7/pKVLi896vC8+ZgMriqJ5kl7UxkHfKSnmGAIAAAAAADPhpJNOOi6KiuvCsH+bZH8r6TkJCS0v2WfDsP+r+fyyM47kH1arQ9+TNNyugQdB8IrH/dpj/WUc9zxfs3cX/ccYcPz/cSgBAAAAAIDpVigU8vl86Zo5c+aX3e1mScsTGuqLzOIf5fP9q3UEq7HM9I/tG7IfWQPLrPWitg3VNTYyMnI3hxQAAAAAAJguURQdH0X918dx8ICZXyZpcQrCnmemTWHY/4/FYvGw4o3joI0NLF1w2mmnzX2sLzzOPbDsRe0aaRDonyQ5hxYAAAAAADhWK1asmBNFxUvdM9vd9S5JvSlMw++3WnZXFEVPf7JvXLx4/tfNNNmmcfbu2zd17mN94XcaWEuWLFkg6Zw2JvULHF4AAAAAAOAYZfL50p/u2VPf7m43KR0rrp7Iqe6Z7+bzy17xRN+0devWKXd9uV2DNAue/1h//zsNrExm7oWSeto0zgP79/f+C8cYAAAAAAA4WlFUemEY9v/YzD8jWYGM/MpxZvGWKCpe9MTf5m3bRujuL3isv/+dBpaZvbB9ebRv7t59f535BAAAAAAAjlSpVFoUhv23uPtXJT2NjDymHnf7H/l86U8f7xvcm1+Q1GrH4Mz0HEmZ3/77x7oH1oXtyqBZ/E/MIwAAAAAAcKSiqP+NjYbfJ+kv9bj3/MYhgZl/KgyLb36sL9Zqtd2Svt+mseWiaNmK3xnw7waggfbljwYWAAAAAAA4fIVC4dR8vvjP7rpT0hIyctgCyT6Tz5f+4HG+/vV2DSyO43MfY7C/UfSz3NXXpvFtq1Qq25k/AAAAAADgyZRKpd4oKn0ojoOtZvZKMnJUMmZ+R6FQ+J2H+QWBfbNdgzLz3x3Pr/9HqxWc377B6VvMGwAAAAAA8GSiqPTCRsN/6O4flDSXjByTBa1W8I+FQiH/63+5f//e70hqtmNAZvbEK7DM7Lx2ZSuO9V3mDAAAAAAAeDylUumUMOz/rLt/TdJTycj0MNMpcRz83YoVK+Y8+ne7du16WLIftWM87npGqVTq/fW/+617YP3uEq1ZHNy/MWUAAAAAAMBjCPL5/ksaDf+5pFWSjJRMu+dMTDz80V//CzP/RpvG0tNs2jN+YwL82p+zkla0aWC/HB0dvo+5AgAAAAAAfl0YLjs7DPu/Y6bNkhaRkZnjrneGYf9LHv3vOI7bdrunOI6f/uv//asGVrFYPEPt2zf6XUnOVAEAAAAAAJJ04olnLAzD4sel+G5JF5CRWRFI+u/Lly/PSVI2a9+SFLdjIGb+tN8emCQpju3sNiaI+18BAAAAAABJUj5fXDl37v6fSvY2HdwxhtlTnJpqfVSSyuXyLyVta88wgt/YJfhrDSx/ersyY2bfYX4AAAAAAJBuS5b0LwvD/n8ys/8rqUhG2sNdl4Rh/3MO/de97RmDP/YWQjNrVwOr2Wg8cjfTAwAAAACAdBoYGOgJw9J7s1n9VNKryUjbBe7aICkwC37cjgGY6ZR8Pn/irwb0a19r1+Mn/318fHwvcwMAAAAAgPQpFJa9YHx8948lv1rSfDLSGcx0ThQV39iuFVgHZc989E+BJK1YsWKOpP52DMVdP2NaAAAAAACQLvl8/sQw7P9MHMdfd9dZZKTzuNvHGg3d167XNwtOe/TPgST98pd7l0vKtGcw+jlTAgAAAACA1LAwLL7ZrOdnkv5UkpGSjlXs6fHXSBpvz8v7qY/+6dCd/OOntGu+0MACAAAAACAdwnD56VLrFkkvJRvdwd3eI+k+SUva8PK/WoGVlR5dkuVtSUSz6fcxHQAAAAAASK58Pj9fmvMBqfUOST1kpKtEatO9ydz1m1sIJT+tTUlonnDCwu3MBQAAAAAAkikMi68x69lq5peJ5lW3Or4dL2qmX20hfPQphP1tSsADW7dunWIeAAAAAACQLIVCIR+G/Z+V7B8llcgIjsLiE088Y6H0Hw2sQjtGwf2vAAAAAABInGwUFS+N4+A+SatIB47FnDlTeelXN3FvTwPL3WlgAQAAAACQEPl8/7PN7DZ3P5dsYDqYxaGk+7MHb6Smxe0ZRrCNUgAAAAAA0N1KpdKiRiNeL+kvJA/ICKaPR5KUleYU2/UEQve4SiEAAAAAAOhe+XxxZaPht0oWkg1MvyCUpGwQ6BT3Ng0hiMcoBAAAAAAA3ScMl58utW6R9FKygZnirlMkKXCPT27XIJrNXhpYAAAAAAB0kYGBgZ4oKl4mte4VzSvMOD9BkrLudqJZW0bQGBvb/iCFAAAAAACgO0RR6UVjY7tvlexMsoFZcrCBJfmJUls6WOOSYuoAAAAAAEBnK5VKpzQafp27X6Q2NRGQTmb2aAMrOKEdN3F3F9sHAQAAAADobBaGxVWNhv+VDq2EAWaXHy8dXIHVlglopp0UAQAAAACAzpTP9z/LzG+T7DyygTY6uALLTLl2vLq7atQAAAAAAIDOsmTJkgWZzLwrzfxdkmXICNrsOEnKPvqH2cYKLAAAAAAAOksU9b/WXTdLHpINdIjsaaedNjfrruPa8RRCd5+gBgAAAAAAtN+SJf3LslltcteryQY6zdTU1PysWXtWYEn2MCUAAAAAAKB9BgYGesbHd13iro9K7eoPAE+s1WotaOMWQttLCQAAAAAAaI+lSwvPHx3dfauZrSAb6Gxz52clzW/Pi8c0sAAAAAAAmGX5fP5Es+z1kr1FkpERdL54ftZMWffZf2kz20cBAAAAAACYvUvxfL7/z8x0raQTSAe6RRzHmay7su158aBJCQAAAAAAmHlhuPx0qXWLpJeSDXSbbNaDrKRMO17crNWiBAAAAAAAzJwoiuZJ2cvcW++VNIeMoBu5Z9rXwJIspgQAAAAAAMyMMCy+xt02Sl4iG+hmceyZtjWwgiBgBRYAAAAAANOsUCjk4zi4RtIqsoFk8CBQm5440Gw2nQIAAAAAADBtsmHY/444Du4XzSskSCZzcAshAAAAAADoYvl8/7PN7DbJzyUbSCIaWAAAAAAAdKlSqbRoakpXmflqyTNkBElFAwsAAAAAgC4UhsXXNxq+0UxLyAaSjgYWAAAAAABdJIqi06Rgs7u9gmwgLWhgAQAAAADQBVasWDFnYqL+dnf7kKReMoI0oYEFAAAAAECHi6LSi/bsefhWyc4kG0gjGlgAAAAAAHSoUql0SqPh17n7KrKBNKOBBQAAAABA5wnCsHhRo+F/JekE0oG0o4EFAAAAAEAHCcPSMyW/VdIFZAM4iAYWAAAAAAAdYMmSJQsymXlXSv4uSRkyAvwHGlgAAAAAALRZPl9caWabJC+SDeB30cACAAAAAKBNlizpX5bNapOkV5MN4PHRwAIAAAAAYJYNDAz0jI/vusRdH5V0HBkBnhgNLAAAAAAAZtHSpYXnj47uvtXMVpAN4PDQwAIAAAAAYBZEUXS8e3a95G+VZGQEOHw0sAAAAAAAmFkWhsVV7naD5CeRDuDI0cACAAAAAGCGhOHy06XWrZJeQjaAo0cDCwAAAACAaRZF0Twpe5l7672S5pAR4NjQwAIAAAAAYBqFYfE17rZR8hLZAKYHDSwAAAAAAKZBoVDIx3FwjaRVZAOYXgEpAAAAAADgmGSjqHhpHAf3ieYVMDMHGSkAAAAAAODo5PP9z5b01+46h2wAM4cGFgAAAAAAR6hUKi2amtJVZr5aUoaMADOLBhYAAAAAAEcgDIuvbzR8o5mWkA1gdtDAAgAAAADgMERRdJoUbHa3V5ANYHbRwAIAAAAA4AmsWLFizsRE/e3udpWkuWQEmH00sAAAAAAAeBxRVHrRnj0P3yrZmWQDaB8aWAAAAAAA/JZSqXRKo+HXufsqsgG0Hw0sAAAAAAD+QxCGxYsaDf8rSSeQDqAz0MACAAAAAEBSGJaeKfmtki4gG0BnoYEFAAAAAEi1JUuWLMhk5l0p+bskZcgI0HloYAEAAAAAUiufL64002bJC2QD6Fw0sAAAAAAAqVMsFpe3WrZR0qvJBtD5aGABAAAAAFJjYGCgZ3x81yWtln1U0nFkBOgONLAAAAAAAKmwdGnh+aOju281sxVkA+guNLAAAAAAAIkWRdHx7tn1kr9VkpERoPvQwAIAAAAAJJWFYXGVu90g+UmkA+heNLAAAAAAAImTzy87wyy+RdJLyAbQ/WhgAQAAAAASI5/Pzw+COe9xj98raQ4ZAZKBBhYAAAAAIBHCsPgayTa6e4lsAMlCAwsAAAAA0NUKhUI+joNrJK0iG0AyBaQAAAAAANClslFUvDSOg/tE8wpI9sFOCgAAAAAA3Wbp0uKAmd3mrnPIBpB8NLAAAAAAAF2jVCotmprSVWa+WlKGjADpQAMLAAAAANAVwrD4+kbDN5npZLIBpAsNLAAAAABAR4ui6DQp2OxuryAbQDrRwAIAAAAAdKRSqdTbbOpyd79c0lwyAqQXDSwAAAAAQMcJw/4XNxp+i6QzyQYAGlgAAAAAgI5RKpVOaTT8OkmryAaAR9HAAgAAAAB0giAMixc1Gv5xSceTDgC/jgYWAAAAAKCtwrD0TMlvk3Q+2QDwWGhgAQAAAADaYsmSJQsymXlXSv4uSRkyAuDx0MACAAAAAMy6fL640kybJS+QDQBPhgYWAAAAAGDWFIvF5a2WbZL0KrIB4HDRwAIAAAAAzLiBgYGe8fFdl7Ra9jFJC8gIgCNBAwsAAAAAMKOWLi08f3R0961mtoJsADgaNLAAAAAAADMiiqLj3bPrJX+rJCMjAI4WDSwAAAAAwHSzMCyucrcbJT+RdAA4VjSwAAAAAADTJoqip7tnbpN0IdkAMF1oYAEAAAAAjlk+n58fBHPe4+7vlTSHjACYTjSwAAAAAADHJAyLr5Fso7uXyAaAmUADCwAAAABwVAqFQj6Og2skrSIbAGZSQAoAAAAAAEcoG0XFS+M4uE80rwDMxpsOKQAAAAAAHK6lS4sDZnabu84hGwBmCw0sAAAAAMCTKpVKi6amdJWZrxG7eQDMMhpYAAAAAIAnFIbF1zcavslMJ5MNAO1AAwsAAAAA8JiiKDrNPXuL5C8nGwDaiQYWAAAAAOA3lEql3mZTl7v75ZLPJSMA2o0GFgAAAADgV8Kw/8WNht8i6UyyAaBT0MACAAAAAKhUKp3SaPh1klaRDQCdhgYWAAAAAKRbEEXFiw81r3KkA0AnooEFAAAAACkVhqVnSn6bu84nGwA6GQ0sAAAAAEiZJUuWLMhk5l0p+bskZcgIgE5HAwsAAAAAUiSfL64002bJC2QDQLeggQUAAAAAKVAsFpe3WrZJ0qvIBoBuQwMLAAAAABJsYGCgZ3x81yWtln1M0gIyAqAb0cACAAAAgIQqFJa9YHR09y1mtoJsAOhmNLAAAAAAIGGiKDrePbs+juO3msnICIBuRwMLAAAAAJLDwrC4yt1ulPxE0gEgKWhgAQAAAEACRFH0dPfMbZIuJBsAkoYGFgAAAAB0sXw+Pz8I5rzH3d8raQ4ZAZBENLAAAAAAoEvl88WVZrbR3fvJBoAko4EFAAAAAF2mUCjk4zi4RtIqsgEgDQJSAAAAAABdIxtFxUvjOLhPNK8ApOnNjxQAAAAAQOdburQ4YGa3uescsgEgbWhgAQAAAEAHK5VKi6amdJWZrxG7aACkFA0sAAAAAOhQYVh8faPhm8x0MtkAkGY0sAAAAACgw0RRdJp79hbJX042AIAGFgAAAAB0jCiK5knZy9z9csnnkhEAOIgGFgAAAAB0gDDsf7G7bpH8TLIBAL+JBhYAAAAAtFGpVDql0fDrJK0iGwDw2GhgAQAAAEB7BFFUvLjZ9Osl9ZEOAHh8NLAAAAAAYJaFYemZkt/mrvPJBgA8ORpYAAAAADBLlixZsiCTmXel5O+SlCEjAHB4aGABAAAAwCzI54srzbRZ8gLZAIAjQwMLAAAAAGZQsVhc3mrZJkmvIhsAcHRoYAEAAADADBgYGOgZH991SatlH5O0gIwAwNGjgQUAAAAA06xQWPaC8fHdt7rbWWQDAI4dDSwAAAAAmCZRFB3vnl0fx/FbJRkZAYDpQQMLAAAAAI6dhWFxlbvdKPmJpAMAphcNLAAAAAA4BlG07Bnu8a2SLiQbADAzaGABAAAAwFHI5/Pzg2DOe9zj90qaQ0YAYObQwAIAAACAI5TPF1ea2UZ37ycbADDzaGABAAAAwGEqFAr5OM7cJPnryQYAzJ6AFAAAAADAk8pGUfHSOA7uo3kFAG14EyYFAAAAAPD4li4tDpjZbe46h2wAQHvQwAIAAACAx1AqlRZNTekqM18jdq8AQFvRwAIAAACA3xKGxdc3Gr7JTCeTDQBoPxpYAAAAAHBIFEVPcc9ulvzlZAMAOgcNLAAAAACpF0XRPCl7mbtfLvlcMgIAnYUGFgAAAIBUC8P+F7vrVsnPIBsA0JloYAEAAABIpf7+/qXNpq6VtIpsAEBno4EFAAAAIG2CKCpe3Grpekl9pAMAOh8NLAAAAACpkc/3P8tMt7rrfLIBAN2DBhYAAACAxFu+fHlu//74w2a+WlKGjABAd6GBBQAAACDR8vniygMHmpvNrEA2AKA70cACAAAAkEjFYnF5s2mbzfR7ZAMAuhsNLAAAAACJMjAw0DM+vuuSVss+ZqYFZAQAuh8NLAAAAACJUSgse8H4+O5b3e0ssgEAyUEDCwAAAEDXi6LoePfs+jiO3yrJyAgAJAsNLAAAAADdzMKwuMrdbpT8RNIBAMlEAwsAAABAV4qiZc9wj2+VdCHZAIBko4EFAAAAoKvk8/n5QTDnPe7xeyXNISMAkHw0sAAAAAB0jXy+uNLMNrp7P9kAgPSggQUAAACg40VRFLpnbpL0OrIBAOkTkAIAAAAAHSwbRcVL3TM/F80rAEjvhwEpAAAAANCJli4tDmQy9tfuGiAbAJBuNLAAAAAAdJRSqbRoakpXmfkad3aNAABoYAEAAADoIGFYfH2j4ZvMdDLZAAA8igYWAAAAgLaLougp7tnNkr+cbAAAfhsNLAAAAABtE0XRPCl7mbtfLvlcMgIAeCw0sAAAAAC0RRj2v9hdt0p+BtkAADwRGlgAAAAAZlV/f//SZlPXSlpFNgAAh4MGFgAAAIDZEkRR8eJWS9dL6iMdAIDDRQMLAAAAwIzL5/ufZea3udt5ZAMAcKRoYAEAAACYMcuXL8/t3x9/2MxXS5YhIwCAo0EDCwAAAMCMyOeLKw8caG42swLZAAAcCxpYAAAAAKZVsVhc3mzaZjP9HtkAAEwHGlgAAAAApsXAwEDP+PiuS1ot+5iZFpARAMB0oYEFAAAA4JgVCsteMD6++1Z3O4tsAACmGw0sAAAAAEctiqLj3bPr4zh+qyQjIwCAmUADCwAAAMDRsDAsrnK3GyU/kXQAAGYSDSwAAAAARySKlj3DPb5V0oVkAwAwG2hgAQAAADgs+Xx+fhDMeY97/F5Jc8gIAGC20MACAAAA8KTy+eJKM9vo7v1kAwAw22hgAQAAAHhcURSF7pmbJL2ObAAA2iUgBQAAAAAeQzaKipe6Z34umlcAgHZ/KJECAAAAAL8uny8+1yy41d2fTjYAAJ2ABhYAAAAASVKxWFzcbAYfMvM1krNbAwDQMWhgAQAAAFAYFl/fatkmMz+ZbAAAOg0NLAAAACDFoih6invmFkkvIxsAgE5FAwsAAABIoSiK5knZy9z9cklzyQgAoJPRwAIAAABSJgz7X+KuWyQ/g2wAALoBDSwAAAAgJfr7+5c2m7pW0iqyAQDoJjSwAAAAgOQLoqh4caul6yX1kQ4AQLehgQUAAAAkWD7f/ywzv83dziMbAIBuRQMLAAAASKDly5fn9u+PP2zmqyXLkBEAQDejgQUAAAAkTD5fXHngQOsWM0VkAwCQBDSwAAAAgIQoFAqntlrBJjP9HtkAACQJDSwAAACgyw0MDPSMj+96Rxzbh8zUS0YAAElDAwsAAADoYoXCsheMj+++1d3OIhsAgKSigQUAAAB0oSiKjnfPro/j+K2SjIwAAJKMBhYAAADQXSwMi6vc7UbJTyQdAIA0oIEFAAAAdIkoWvYM9/g2Sc8hGwCANKGBBQAAAHS4fD4/PwjmvMc9fq+kOWQEAJA2NLAAAACADpbPF1ea2UZ37ycbAIC0ooEFAAAAdKAoikL3zE2SXkc2AABpF5ACAAAAoKNko6h4qXvmPtG8AgDg4IcjKQAAAAA6Qz5ffK5ZcKu7P51sAADwH2hgAQAAAG1WLBYXN5vBh8x8jeTskgAA4LfQwAIAAADaKAyLr2+1bJOZn0w2AAB4bDSwAAAAgDaIougp7plbJL2MbAAA8MRoYAEAAACzKIqieVL2Mne/XNJcMgIAwJOjgQUAAADMkjDsf4m7bpH8DLIBAMD/z96dx8lR1fv/f3+qe7KwL4EkXTXdnRAIEFwgorjiel3R+3W7G0Gv1+WqQFCvistVcAWXn7Io3qteFfQuLle94L6LuIMohM0h6e6pqpkhEIEQskx3fX5/EBU1kEkyM11d9Xo+HjyUMJk5531OL/Wequqpo8ACAAAAZlij0Vjc7epcSatIAwCAXUeBBQAAAMycIIrqL+719F5J+xEHAAC7hwILAAAAmAG1WuNYM/+Iuz2UNAAA2DMUWAAAAMA0Wrp06f5btmRvM/NXSlYhEQAA9hwFFgAAADBNarX6SVu39j5spog0AACYPhRYAAAAwB4aHh4+rNcLLjTTU0gDAIDpR4EFAAAA7KaVK1cOTUysf3WW2VlmmkciAADMDAosAAAAYDdEUfPEiYlbP+xuR5MGAAAziwILAAAA2AVRFB3kXn23u79EkpEIAAAzjwILAAAAmBoLw/oqd3u/5AuIAwCA2UOBBQAAAOxEFC15oHv2EUkPJw0AAGYfBRYAAABwH2q12l5BMOd17tkbJM0hEQAA+oMCCwAAANiBWq1+kpld4O4N0gAAoL8osAAAAIB7iaIodK98UNJzSQMAgHwIiAAAAACQJFWjqL7avXKDKK8AAMjXizQRAAAAoOxqtfqjzOwidx1DGgAA5A8FFgAAAEqrXq8f2O0GZ5n5qeLqBAAAcosCCwAAAGVkYVhf1evZe838UOIAACDfKLAAAABQKlEUHe5e+bCkJ5IGAACDgQILAAAApRBF0Xyp+np3P1PSXBIBAGBwUGABAACg8MKw8Xh3fVjy5aQBAMDgocACAABAYTUajcXdrs6VtIo0AAAYXBRYAAAAKKIgiuov7vX0Xkn7EQcAAIONAgsAAACFUqs1jjXzj7jbQ0kDAIBioMACAABAISxdunT/LVuyt5n5KyWrkAgAAMVBgQUAAICBV6vVT9q6tfdhM0WkAQBA8VBgAQAAYGANDw8f1uvZh8zsyaQBAEBxUWABAABg4KxcuXJoYmL9q7PMzjLTPBIBAKDYKLAAAAAwUKKoeeL4+K0XSXYUaQAAUA4UWAAAABgIhx66ZOHQUPZedz9ZkpEIAADlQYEFAACAvLMwrK+Ssv9P0sHEAQBA+VBgAQAAILeiaMkD3bOPSHo4aQAAUF4UWAAAAMidWq22VxDMeZ179gZJc0gEAIByo8ACAABArtRq9ZPM7AJ3b5AGAACQKLAAAACQE1EUhe6V8yQ9hzQAAMC9BUQAAACAPqtGUX21e+UGUV4BAIAdvVkgAgAAAPRLrVZ/lJld5K5jSAMAANwXCiwAAADMujAMDzarnuuuF0kyEgEAAPeHAgsAAACzycKwvkqy97nrEOIAAABTQYEFAACAWRGGzQdL/mFJDycNAACwKyiwAAAAMKOazeYB27bpbMlfKalCIgAAYFdRYAEAAGCmWBjWV01O+nvMtJA4AADA7qLAAgAAwLSr1ZYsN8sulPRE0gAAAHuKAgsAAADTZuHChXtXq/PeJmWn814TAABMF95UAAAAYFpEUfNE9+yjkg4nDQAAMJ0osAAAALBH6vX6gb1ecI67v0QyIxEAADDdKLAAAACw28Kw/rxezy6U/FDSAAAAM4UCCwAAALtseHi41usFF0r6f6QBAABmWkAEAAAA2AUWRfWXZllwgxnlFQAAmB2cgQUAAIApiaLocPfKJ931CNIAAACziTOwAAAAsDMWRfWXuleukiivAADA7OMMLAAAANynZrO5aHLSP+aup5MGAADoF87AAgAAwA6FYf15k5O+RqK8AgAA/cUZWAAAAPgTixYtO6RSmfyIpGeTBgAAyAMKLAAAAPxBFDWe6j75MUk10gAAAHlBgQUAAABFUTQ/yyrnu+vFpAEAAPKGAgsAAKDkarXmke7+P2Z6IGkAAIA84ibuAAAAJRaG9VPM/JcS5RUAAMgvzsACAAAooe2XDJ4n6SWkAQAA8o4CCwAAoGQWLaof7W7/Y6ZjSAMAAAwCLiEEAAAokTCsn1Kp2C8kyisAADA4OAMLAACgBGq12l5mQx+X9LekAQAABg0FFgAAQMGFYRi5V78o6SGkAQAABhGXEAIAABRYrVZ/lFT9pRnlFQAAGFwUWAAAAAUVRfWXmtl3JC0kDQAAMMgosAAAAIqnWqs1zne3f5M0hzgAAMDAv7khAgAAgOKo1WoLzIY+J+mxpAEAAIqCAgsAAKAgarXGcWb+JUnDpAEAAIqESwgBAAAKIAwbjw8CfU8yyisAAFA4FFgAAAADLooaz5H0FXftRxoAAKCIKLAAAAAGWBTVT3PXZyXNIw0AAFBUFFgAAACDyaKoeZa7nc97OgAAUHTcxB0AAGDwVGq1xkfc/cVEAQAAyoACCwAAYIDUarW9zIY+K+nppAEAAMqCAgsAAGBALF26dP+tW3tfk/Rw0gAAAGVCgQUAADAAms3mAVu39r4u6WGkAQAAyoYCCwAAIOeazeYBk5P6pqTjSQMAAJQRBRYAAECOhWF48OSkf1vSg0kDAACUFR+5DAAAkFMHHbRsP/fq10V5BQAASo4zsAAAAHKoVqvtJW271MweQhoAAKDsOAMLAAAgZ1asWDHHbOjzZvYY0gAAAKDAAgAAyJvK7353139LeipRAAAA3IMCCwAAIEdqtcYHzPT/SAIAAOCPuAcWAABAToRh402STiMJAACAP8UZWAAAADkQhs0XSHo7SQAAAPwlCiwAAIA+q9Xqj5T83yQZaQAAAPwlCiwAAIA+Wrx4ScPM/lfSXNIAAADYMQosAACAPjnkkEP2CYLs/yQdShoAAAD3jQILAACgP2zu3L0ukfRAogAAALh/FFgAAAB9EIbNM9311yQBAACwcxRYAAAAsywMG4+T/G0kAQAAMDUUWAAAALOo2WwukvQZSVXSAAAAmBoKLAAAgNlT2bYt+x9Ji4kCAABg6vjNHwAAwCwJw8aZkh5DEgAAALuGM7AAAABmweLF9ZWS3kISAAAAu44CCwAAYIYtXLhw7yCwz0iaQxoAAAC7jgILAABghlWr894jaTlJAAAA7B4KLAAAgBkURc0TJb2cJAAAAHYfBRYAAMAMiaJovnv2UUlGGgAAALuPTyEEAACYIe6Vt0s6nCQAAAD2DGdgAQAAzIDh4eFjJK0mCQAAgD1HgQUAADD9LMuCC8XZ7gAAANOCAgsAAGCaRVH9HySdSBIAAADTgwILAABgGi1YsHxfdzuXJAAAAKYPBRYAAMA0mjt3y5mSaiQBAAAwfSiwAAAApsnw8HBN0hkkAQAAML0osAAAAKZJrxecLWkvkgAAAJheFFgAAADToFZbstxMLyQJAACA6UeBBQAAMA3M/O2SqiQBAAAw/SiwAAAA9tDixY2jJH8OSQAAAMwMCiwAAIA9fUMV6I28rwIAAJjB91tEAAAAsPvq9fpSSX9LEgAAADOHAgsAAGAP9HrB68W9rwAAAGYUBRYAAMBuiqLoIMlPJgkAAICZRYEFAACwm9yrL5O0F0kAAADMLAosAACA3VOVspcTAwAAwMyjwAIAANgNYVj/a8mGSQIAAGDmUWABAADsFnsZGQAAAMwOCiwAAIBdFIZhJOlxJAEAADA7KLAAAAB2WfWFkirkAAAAMDsosAAAAHaNSXoBMQAAAMweCiwAAIBdUKvVHylpGUkAAADMHgosAACAXWLPJwMAAIDZRYEFAACwC++dzPRsYgAAAJjlN2FEAAAAMDW1Wv3hkkKSAAAAmF0UWAAAAFNkFjyPFAAAAGYfBRYAAMAUmfkzSQEAAGD2UWABAABMQRguPcJdS0gCAABg9lFgAQAATIFZ9ymkAAAA0B8UWAAAAFPgbk8mBQAAgP6gwAIAANiJZcuWzZV0IkkAAAD0BwUWAADATmzatPWhkvYmCQAAgP6gwAIAANjZG6ag8ihSAAAA6OP7MSIAAADYGX8kGQAAAPQPBRYAAMD9M0kPJwYAAID+ocACAAC4H/V6/WhJB5EEAABA/1BgAQAA3I9eL3gIKQAAAPQXBRYAAMD98geRAQAAQH9RYAEAANw/CiwAAIA+o8ACAAC4fw8kAgAAgP6iwAIAALgPYRhGkhaQBAAAQH9RYAEAANwH98pRpAAAANB/FFgAAAD3yQ4nAwAAgP6jwAIAALgPZk6BBQAAkAMUWAAAAPfJlpEBAABA/1FgAQAA3DfOwAIAAMgBCiwAAID71iACAACA/qPAAgAA2IEoig6SNI8kAAAA+o8CCwAAYAfMrEYKAAAA+UCBBQAAsAO9XpUCCwAAICeqRAAAAPCXzHqLJCMIlEVX0jck/cpd+5vpuZIWEwsAIC8osAAAAHbAXYuM/golYOZfzrLq6Wm6tvP7P1u4cOEbqtV5X5F0IgkBAPKASwgBAAB27EAiQJG5a1zyF8Rx56/vXV5J0sTExCaz3j9IupukAAB5QIEFAACwA2a2PymgoFzSJWbdY5Kkc/F9fVEcx4m7vkFcAIA84BJCAACAHduXCFBA12dZ9rKxsdHLp/LFZrpC0v8jNgBAv3EGFgAAwI5xCSGKZNLdzp0/f+jYqZZXkmTmE0QHAMgDzsACAADYAXff17iLO4rhil7PXzo+3r5uV/9ilgUbzZwEAQB9R4EFAACwQ7YXGWDA3WHmb43jzgWSMuIAAAwyCiwAAIAdMNMQKWCAXeZefUWS3DxKFACAIqDAAgAA2AEzDTlXTmHwjEm+Okk6nyMKAECRcBN3AACAHXB3zsDCQG1ZSZeY9Y6hvAIAFBFnYAEAAOyAmVU5AwuDwX8r2cuSpP09sgAAFBVnYAEAAOyAu/OLPuTdVnd/6wEH7HsM5RUAoOh4YwYAALBDZmSAHLui1/OXjo93rktTwgAAFB8FFgAAADA4Npr5v8Rx56O6575XAACUAgUWAAAAMBh+FQTZ80ZHR28mCgBA2VBgAQAAADnn7j/csmXOSRs2jNxJGgCAMuIm7gAAAEC+3ThnTvAsyisAQJlxBhYAAACQX9uCIHtuqzV6O1EAAMqMM7AAAACAnHK3D4yOjl5LEgCAsqPAAgAAAPLp7iyrvp8YAACgwAIAAAByyj83Pj6ynhwAAKDAAgAAAHLJPfgiKQAAcA8KLAAAACCHul37KSkAAHAPCiwAAAAgf2695ZZ1E8QAAMA9KLAAAACA3PHfkQEAAH9EgQUAAADk7236FjIAAOBer4xEAAAAAAAAgDyjwAIAAAAAAECuUWABAAAAAAAg1yiwAAAAAAAAkGsUWAAAAAAAAMg1CiwAAAAAAADkGgUWAAAAAAAAco0CCwAAAAAAALlGgQUAAAAAAIBco8ACAAAAAABArlWJAAAAAMAs6ElaJ6nlrlsku9XMb5VsvZTdtqO/4G77SjrIzA9ytwVmOthd9SDQEe7aj0gBoDwosAAAAABMtwlJV0j6leQ3mmU37L///jeuWbNm23T9gEajsbjXs+VSdoS7/b2kE4kdAIqLAgsAAADAHvJRKfiemV+eZcHlabruxj//ijiOp/UnttvtMUljkr4v6WNR1DjPXaeyFgBQTBRYAAAAAHbHTe7+v5WKf2F0dPRKSd7HsWRx3D49DJvLJdriseYAAHSxSURBVH8SSwMAxUOBBQAAAGCqUkkfD4Lss6Ojo9fmbGze62VnVCp2rSRjqQCgWCiwAAAAANwfl/RdM10Ux+0vS+rmdaDj453rwrD5S8mPZ9kAoFgosAAAAADsUK/nv6lUgqN2dE+rHPuVJAosACgYCiwAAAAAOzQx0V43eKP2TawcABRPQAQAAAAACqROBABQPBRYAAAAAAph5cqVQ5JOJAkAKB4KLAAAAACFMDFx2yMlLSAJACgeCiwAAAAAheDujyAFACgmCiwAAAAARfFwIgCAYqLAAgAAAFAEJukEYgCAYqLAAgAAADDwwnDp4eL+VwBQWBRYAAAAAAog4/JBACgwCiwAAAAABUCBBQBFRoEFAAAAoAiHNnwCIQAU+VmeCAAAAAAMsgULlu8r+dEkAQDFRYEFAAAAYKDNmbP5BEkVkgCA4qLAAgAAADDouP8VABQcBRYAAACAAWcUWABQcBRYAAAAAAaZmemhxAAAxUaBBQAAAGBgLVpUP0rSQSQBAMVGgQUAAABgcA9oAi4fBIBSPN8TAQAAAICBPaAJuIE7AJTi+Z4IAAAAgLzxq8lgarJMJ5ACABQfBRYAAACQI+52fpK0/5Ekdq7ZbB5gpqNIAgCKr0oEAAAAQC50JTs9TVsXEcUUA+vqBPFLeQAoBQosAAAAoP82SHpukrS+RxS7hPtfAUBJUGABAAAAfeW/da+clKbrbiSLXUzOKbAAoCw43RYAAADoEzO7fGgoeCjl1e4ey/hDiQEAyoEzsAAAAID++O7WrZueFcfr7yKKXRdF0Qp37U8SAFAOnIEFAAAAzDIz//L8+UNPW7+e8moPDmW4fBAASoQzsAAAAIDZdUkcd14kqUsUu4/7XwFAuXAGFgAAADBLzHRhkrRfKMqr6UjzEWQAAOVBgQUAAADMjnfGcfs0SRlR7JkwDA+WdDhJAEB5cAkhAAAAMMPc7fw0bb2ZJKZL5eGSjBwAoDw4AwsAAACYWZ9I09YZxDCdjPtfAUDJUGABAAAAM+fzSdJ+iSQnimlFgQUAJUOBBQAAAMwAM/9ykrT/TlKPNKZVRdLxxAAA5UKBBQAAAEwzM//mvHlz/kZ82uC0C8PmAyTtQxIAUC4UWAAAAMA0MtN1c+ZUnz8yMrKVNKafuz+CFACgfCiwAAAAgOkzlmWVp65du/YOopgZZvZYUgCA8qHAAgAAAKbHZsmenaZrO0QxM6Iomi/500gCAMqHAgsAAADYc5mZViVJ66dEMYMhZ5W/k7Q3SQBA+VBgAQAAAHvIzN4Ux+0vkMSMqpr5mcQAAOVEgQUAAADsmUviuHUOMcysMGy+VrLDSQIAyokCCwAAANh917pP/jMxzKzh4eGHSP5WkgCA8qLAAgAAAHbPRnd7XpqmdxPFzFm4sLGk1wsulTSXNACgvKpEAAAAAOw6d3tpmrZuKPOxRK122GJpshEEVs8yjySLJB1sZkPbv2ae5PMl2yxlt0m2QdL2//XRSsWv73Q66yT5jn7A8PDwMVnmX5VsETsOAMqNAgsAAADYRWb6UJK0/rtMc67X60u73eChZv5QScdLOk7q7iWZ3CUzu9dX/3kf5ZL+8r/3eqYwbNwl2fVmfk2W6fogsGuzrDfHzE7IMnuVpHnsOAAABRYAAACwS+wX8+ZVX1OCiVZqtfrDpeB5Zv7sXk+Rmc/Ez9lH8uPddbyZ5O4y404nAIA/RYEFAAAATN3Gbtf/ZmRkZGtB5xfUavWnB4H9nbueJmn/+7i6DwCAWUWBBQAAAEyRmb9mYqKzrmjzajabB3S72QskW+2uJU5nBQDIGQosAAAAYArc/RtJ0vlYkea0eHHjqCCwMycn/fmSca8pAEBuUWABAAAAO3eHNPQSFeR6uiiKQvfqWyR/keQcEwAAco8XKwAAAGCn/LQ0vXl00GdRr9cP7HaD17v76ZLPZ10BAIOCAgsAAAC4X/Z/SdK+ZJBnsGjRskOq1e4rez0/3cwPZE0BAIOGAgsAAAC4b7cPDellgzr4ZrO5qNv1N7lP/pO7OOMKADCwKLAAAACA++Cuf221WuODNu4VK1bMueOOjS/vdv1t7tqPlQQADDoKLAAAAGDHrk7T9kWDNugoajzt9tvv+pBkTZYQAFAUFFgAAADAX/IgCFZL6g3KgJcuXbr/1q3Ze9z9JZKMJQQAFAkFFgAAAPAX/FOjo+t+OCijjaLmiVu39j4jKWTtAABFFBABAAAA8EdmurNatTcOynCjqL7a3b8lyisAQIFxBhYAAABwL1mmN8Vxeyzv46zVanuZDV3irmezagCAouMMLAAAAGA7M6078MB9/j3v44yi6CCzoW9KlFcAgHLgDCwAAADgj/51zZo12/I8wIULG0vc9XVJR7BcAICyoMACAAAAJEl2TRy3/ivPI6zVDhsOgu533LWE9QIAlAkFFgAAACBJ8jdIyvI6ujAMI6n7PcorAEAZcQ8sAAAAQLoiSdpfyevgwjA8WKp+W9JhLBUAoIwosAAAAFB6ZvbmvI5t5cqVQ1L1s5KWs1IAgLKiwAIAAEDZfTeOW9/P6+DGx2/9N0mPZ5kAAGVGgQUAAIBScw/OzevYwrD5ckn/yCoBAMqOAgsAAABl9ps0XfetPA6sXq+vkPz9LBEAABRYAAAAKDEznSvJ8zauWq22V5bZZyXNZ5UAAKDAAgAAQHm14rj92Vy+SQ+GznLX0SwRAADbXxuJAAAAAGVk5v+fpG7exhVFSx7orjNYIQAA/ogCCwAAAGV02+Tk1v/I4bgqWZZ9XNIQSwQAwB9ViQAAAAAl9MmJiYlNeRtUGDZXSf4QlgcAgD/FGVgAAAAonV7Pc3f2VbPZnCf52awOAAB/iQILAAAApWJml4+Pd67L27gmJ/0VkuqsEAAAf4kCCwAAAKXinn00b2NatmzZXEn/wuoAALBjFFgAAAAok9vdu1/I26DuvnvyZEmLWR4AAHaMAgsAAACl4W4Xp2l6d86GZZJexeoAAHDfKLAAAABQnje/gX08b2OKouaJZlrB6gAAcN+qRAAAAIAycNeaJFn3m/yNy09hdQAAuH+cgQUAAICS8M/lbURRFM2X9GzWBgCA+0eBBQAAgFLIMuWuwHIPTpK0P6sDAMD9o8ACAABAGVw7Pt65Ln/DsmewNAAA7BwFFgAAAArPPX+XD25/L/5kVgcAgKm9aAIAAACF5m45vP/VkodIOpTVAQBg5yiwAAAAUGjuWjM21r4+f+PKHs3qAAAwNRRYAAAAKPYb3kBfy+nQTmB1AACY4us5EQAAAKDIsiz4Vj5H5g9jdQAAmBoKLAAAABTZliCYvDxvg6rVagskG2Z5AACYGgosAAAAFJaZ/zCO4835G9fQ4awOAABTR4EFAACAwsoyy+vlg8tYHQAApo4CCwAAAMV9sxsE38zjuMyCw1gdAACmrkoEAAAAKCJ3jSfJumvyObZskWQsEgAAU8QZWAAAACgkM10hyXP6NvwgVggAgF145SQCAAAAFJG7fpbj0R3ICgEAMHUUWAAAACjmG93Afp7j4e3DCgEAsAuv60QAAACAAupNTm7+ZV4HZ2aTLBEAAFNHgQUAAIAiumZiYmJTfoeXbWaJAACYOgosAAAAFJD/LM+jyzLbxBoBADB1FFgAAAAoHPfgZ/keoY2ySgAATB0FFgAAAArIf53n0Zl5hzUCAGDqKLAAAABQNN7rbbkx50O8kWUCAGDqKLAAAABQNJ1838Bdcu/+VJKzVAAATA0FFgAAAArF3W/I+xjTNL1VEmdhAQAwRRRYAAAAKBQzXT8gQ/0CqwUAwNRQYAEAAKBob3FvGIRRmvU+JS4jBABgaq/uRAAAAIAiMdNAFFhxHP9WsstYMQAAdo4CCwAAAIVi1vvtoIy118vOlNRl1QAAuH8UWAAAACiS3ujo6MSgDHZ8vHOdmb2LZQMA4P5RYAEAAKBIJiT1BmnAcdw6W9LXWDoAAO4bBRYAAAAKxOMBHHTW7W55nru+zvoBALBjFFgAAAAo0tvb8UEc9cTExKYDD9znWWb6D9YQAIAdvMITAQAAAIojSwd15GvWrNkWx+1/cs+e5a5x1hIAgD+iwAIAAECBWDLoM0jT0f/r9bYsM/MzKLIAALgHBRYAAAAKw11jRZjHxMTEpjjunDc5effhkv2jpO9LylhhAEBZVYkAAAAARWHmdxRpPuvXr79LWv9JSZ+s1Q4bDoLJp7gHT5L88ZIOZsUBAGVBgQUAAIDCMAvuKurc0vTmUUkf3f5PUKstOTwIspXuOk7SgyQtkzQsqcJOAAAUDQUWAAAACiPLsrvKMtU0XXejpBsl/efv/3DFihVzbr99czMIsiVZpkVm2SJ3LXK3QyUdZKb5ZtrHXftKPl+yfSTtJ0ovAEDOUWABAACgQGxTmWe/Zs2abZJu2v7PlK1YsWLOxo0b956crOxXrXar3a4dIEmVSrBvlmVVM82TNF/SfDMtdg8WS77Q3WtmdqikUNK+7D8AwEyhwAIAAEBhBEHvLlLYdduLr22Sfre736PZbB6wbVt2TBDo6CwLVpj50ZIeLGkBCQMA9hQFFgAAAArDrNxnYPVTq9W6XdKPtv/zB7XakuVS9oQg0JPc9VhJB5AWAGBXUWABAACgMDZtmssZWDlzr3t1fVhSJQybx0v+JMmeJ/kDSAgAMBUBEQAAAKAo9tpryyQp5FovSVo/TZL225Ok9cAs84eY6UOSNhANAOD+UGABAACgOG9ug2AeKQyOsbHOlXHcPnX+/KGa5H/j7j8kFQDADl/jiQAAAABF4e7zSWHwjIyMbE2SzmfTtHOiuz/KXV8nFQDAvVFgAQAAoDDMjDOwBlyadq5I0/ZTJT1B0q9IBAAgUWABAACgQLKssg8pFEOStL+bJO2HmPlqSdycHwBKjgILAAAAheGeHUwKhZLFced898oKSd8jDgAoLwosAAAAFIgvIIPiSdO1nSRpP0nSv0rqkggAlA8FFgAAAIr09pYCq7h6SdJ+h7s/TdLtxAEAJXuFJwIAAAAUhXt2CCkUW5p2vpVleoSkDmkAQHlQYAEAAKA4b24Dq5NC8Y2Nta93rzxa8t+SBgCU5DWeCAAAAFAU7mqSQjmk6dpOEPhjJa0lDQAoPgosAAAAFEmDCMpjdHQ0rVT8SZLGSAMAio0CCwAAAEXSWLFixRxiKI9Op7M2CLJnSdpCGgBQXBRYAAAAKJKhO++88whiKJfR0dFfmPlLSAIAiosCCwAAAIXiHjyQFMonjjufNtPHSQIAiokCCwAAAIWSZf4AUiinrVvvPkPSCEkAQPFQYAEAAKBQzOx4Uiin9evX35Vl2YskOWkAQLFQYAEAAKBoTpBUJYZyGhsbvVzyT5EEABQLBRYAAACKZu9arcFlhCXW6815naQ7SAIAioMCCwAAAIVjZo8lhfIaHx9ZL+l9JAEAxUGBBQAAgALyp5FBuXW7Wz4gaYIkAKAYKLAAAABQRI9ZsGD5vsRQXhMTE5skO48kAKAYKLAAAABQRHPmzdvyV8RQbkNDushMd5IEAAy+QH36iNlqtWrEDwAAgJnirr8nhXJrtVq3S7qEJABgsPV6vSyQlPXnDYVz9hcAAABm0tObzeYBxFB2wcVkAACDzSzoBpJ6/fjhWZZVWQIAAADMoLmTk/pbYii3OF73c0nXkwQADC4z698ZWFKFM7AAAAAww294/TRJ3LqCncBlhAAwwLIs6waSuv344UHAGVgAAACYWe46ularP4Ekym7yEvXtF/cAgD31+zOw+nIJobvvxRIAAABgFt70nkkK5ZYkSSzphyQBAIMpCHrdQNKWPv34vVkCAAAAzIInRFHzscRQet8mAgAYWJsDSXf14ye7+z7kDwAAgFnyNnEvrFIzMwosABhQlUplUyDZ3f358c4ZWAAAAJidd57uj67VmnwiYYnFceuXkm4nCQAYPJs2bborkLwvZ2CZ2X4sAQAAAGbv/ae/b8GC5fuSRGn1zPwHxAAAA8fXr1+/OZDUrzOwDmYNAAAAMItqc+ZseT8xlNp3iQAABs4WSb3ATBv78/NtAWsAAACAWX0HanpJrVY/iSTKKcvsR6QAAANnoyQFkm7r0wAosAAAADDrzOzjixcvaZBE+cyZY9dJ6pEEAAyU2yQpyDK7tU9vHbiEEAAAAP1wSBBkX164cCEfKlQyrVZri6QRkgCAweHu6yUpkLxPZ2D5YpYBAAAAffKgoaG5n5FUJYrSuYYIAGBwBIFtkPp8CWGtVtuLpQAAAEA/uNuzwrDxie3viVGadfdrSQEABkeW6fdnYFm/CiwFQRCyFAAAAOijk8Ow/h/iTKzSCALjDCwAGCjbz8AKAo33awjulYiFAAAAQJ/fGL8gDJtfiKJoPlkUX5bZdaQAAAP0Km339FaB1I37OIw6SwEAAID+82e6V35Uqy3l/WnBTU5uikkBAAZJFktSEMfxuKRunwaxnIUAAABAThxn1vtlFDWfQhTFtX79+rskbSQJABgUwT0FlqSe5GP9GIKZHcVCAAAAIEcOcfevhmHjQwsXLtybOAorJQIAGAzulUT6wyeu2Gh/BiEKLAAAAOSNSXpFtTrvxjCsn0IchUSBBQCDoZemN49Jfyyw+nUd+GErVqyYw3oAAAAgh0LJPhWGjW9HUfNhxFEc7hRYADAgxrT9tlfbC6zs5j4NpLpx48bDWQ8AAADk2BPc/Sdh2Li0Vqs/UfecoYUBFgQaIwUAGAh/6KsCSXK3kX6NpNfjMkIAAADknkl6hpl9Kwwb19VqjVMPOmjZfsQymLLM15MCAAzAi6/pD33V9gIr+20fh0OBBQAAgEFypJkumD9/Mo6ixsdrteFnRlE0n1gG6pBoExkAwCDwP/RVVUmaMycY6Xb79NJhnIEFAACAgbSvu15kFrzIXXdHUf1bWWb/NzSkr7XbbS5RyzW7W3JiAID8P1//aYHVbrfHw7Bxl6R9Znso7jqaBQEAAMCA28vdnmWmZ3W7Uhg22pJ+ItnPJP/Z/PlDV42MjGwlpty4mwgAYBAEf7iEsLr9f91MN7prZR9Gc3QURfPjON7MwgAAAKAgGvf8438rSZs3T06GYb21/TfJN0r223tu41EZ3bZtTnrrrTduJLLZlN3NvfgBIPd60uSfnoElSe5+jWT9KLCGsqxyrKQfszYAAAAoqCHJDpd0uKSnSS4zk5Rp7twtCsPGZkm3SEolWy/5nZLdbabbsyy7W7K7g8Dv+OO3s03uvu0P/2bBxizLumbWyzK/0yzYlGXV28bHR26TlBH/nzLjDCwAGAAj9z7ZqXqvp/Fr+zWiIPDjRYEFAACA8pqvP561tf2PXO7aXnRJ7n9+xtAf/93d//B1QWCSXJXKpMKwIUm/k5RIts5d64Igu9ndrpk7t3LV2rVr7yhn3EaBBQD5d829/+VeZ2AF15j155czWWYPZV0AAACAGXHgPf/4MWZ/LMK2bu15GNZHpOAnZv6NbnfoW+PjI+vLEIi7thpXEAJAzp+r/U9OtPpDgTU0lF3Tr08iDAI9nKUBAAAAZpXdc1mjH+6uUyqVySwMGz+X7FNDQ/rvVqt1e4EPi+ZzDywAyLcgsD85Ayv4/f/Z/lG/ffmNi7uW1GqHDbM8AAAAQP+OFSSdIPlFk5Oe1mqNjy5a1GwWcaKVSrAPyw0Aedf7zZ+/SP2Bu67s26tlMHkiiwMAAADkwnwzvbhS8ZvCsP6RMAwPLtLk3H1vlhgAcu32OI5vvvcf/EmBFQT2836NLMvsMawPAAAAkCtDkr1Mql4XRY3nFGVS7rYvSwsA+WXmP9cfP9VE0l+cgZX9oo+DeyxLBAAAAOTSoe76fBjWP/DnxxCDiDOwACDvz9P2yz//sz958ZmcrPyif8Ozw6MoWsYyAQAAAHllZ4Rh43PNZnPegB8acQ8sAMjzs7T/5RWCf1Jg3XLLuglJ7f4NsPoMlgkAAADItWdPTupiDfCZWGZGgQUAOVap9P7iBKsdvej8pH9D9KezTAAAAEDe+fNqtea7Bnf8th9rCAC51R4dHU3//A//osBy1+V9HOSJS5cu3Z+1AgAAAPLNzF9Xq9WfOKDDr7GCAJDbV5gf7OhP/6LAqlb9B30c5dC2bb0nslgAAABA/o8wzOyiWq221+AN3RezfACQ1xcX3+GJVX9RYHU6nesk3dK3lxIXlxECAAAAg2GZ2dDLB3DcnIEFADnlXvnhjv482OHXuq7o41ifrgJ8NC8AAABQjgMN/csAfiohZ2ABQD5fU8aTZO1NO/pvOyyKgsC/38fxHhpFzeNZNgAAACD/zLRoclJ/MyjjbTabB0iaz8oBQB5fU+yH9/XfdlhgZVnwzX4O2D17FssGAAAADAofmAJry5aMywcBIK+vJu732UftsMBK09YNkjr9G7L9g7iMEAAAABgUT4yi6KBBGGgQcP8rAMiv6q4VWJLkrm/0ccT1MGw8loUDAAAABsKQVBmQ9+9WZ7kAIJeuTdObR+/rP95ngRUEfS2wJPkq1g4AAAAYDFlmDx2EcQaBjmS1MEA2SNpEDCiJ++2h7rPAqlbtO5K6/Ru3PWfhwoV7s34AAABA/pn5wwZhnO5GgYVBeERdEwTBiUnSPjhJ2vub6WRJd5ELiszdv35///0+C6xWq3W7pB/1cez7Dg3N/X8sIQAAADAIBx6DcmZTRoGFPLvDzM9IktZxo6Prfv9pbL04bn9G8lcSD4q89w88cN8f3t8X3O+N0s38S/19EQxOYQ0BAACA/DPTwmazOS/PY1yxYsUcyZawWsghl+zioSE7Mo4752kHV0MNDQWflTRJVCior61Zs2bb/X3B/RZY3W7w5T4/hh8fRVHIOgIAAAC5Z91udzjPA9y4cePhkqosFXLm1+7+mCRpvaDVao3f1xe1Wq2tkoy4UETu9qWdfc39Fljj462WpF/1cQ4VKTiZpQQAAAAG4QCksiDP48syW84qIUduN/PTk6T9kDTtTOX2PYEoYFFMW7dsqX5tKg+AnbwIeV/PwnK3l0qqsJ4AAABA3vleuR6d8wmEyMdWlPxTk5PBkXHcuUB9/fA0IBfPzd/bsGHkzp193U4LrGpVn+/zXJZGUeNZLCkAAACQe/NzPr7jWCL02dXu/ugk6bzwllvWTRAHIAWBvjClr9vZF3Q6nTWSXdPf6dgZLCkAAACQb2Y2lO8R+kNZJfTJ7e46bfvlglcQB/AH24LAp6fA2u6/+voy4/7oKFrCiw0AAACQa7YhryNrNBqLJRtmjTDbh7OSLpmcDI5M0/aFknpEAtzrVcP8a51O53dT+dopFVhZZv+5/YHXN1mWnc7SAgAAAPkVBNmteR3b5KQ9jBXCLNt+uWD7FC4XBHYsy4IpnzA1pQJrbGxdW9LP+jkpMz0/DMOI5QUAAADyKQiC2/I6NjM/nhXCLLndzM/gckFgpzb1epsvm/JrzFS/0F2f6fPEhqTKK1hfAAAAIJeygw8++Lb8Ds8osDDjjwEz/UevN3REHHfOE5cLAjvzxYmJiU1T/eIpF1hB0PtPSVv6/KLzzwsXLtybNQYAAAByZ/TKK6+czOnYTOIMLMyoX7nr0XHc/qfx8ZH1xAFMySd25YunXGDFcbxB0pf6PLkDh4bmvpg1BgAAAHLnt3kd2KJF9aMkHcASYQZskOwVSdI+Pk3bPyYOYGrMtC5J2t/blb8T7MoXu/t/9HuS7vamBQuW78tyAwAAALmS2wKrWtUTWR5M96GppEu63epRSdK6SFwuCOzaA8j1Ce3ihwXuUoGVpp3vSGr3eZ6HzJ279VSWGwAAAMgTuym/B0oBBRam88D7l2bBCUnSPmVi4uZbSATYZZl75VO7+peCXf8h/T8LS/LXNpvNA1hzAAAAIC8H9dkv8ziulStXDkn+WFYI0+A2yf45TdsPi+N1PycOYHdfL/xbabq2s6t/b1cLLA0N2UclbevzfA+cnPTXsOwAAABALkxK3avyOLA0veUESdyCBHt0vC3pkl5v6Kgkaf2bpIxIgD3yod35S7tcYLXb7TFJ/5uDCb/q0EOXLGTdAQAAgL67Jk3Tu/M4sCAInsTyYA9cJemRSdI+hU8XBKZFO007X92t5/Pd+Uvu/qEcTHrvoaHemaw9AAAA0Hc/y/HYKLCwO24z85cmSfv4JGn/hDiA6eGuD2k3P/RgtwqsNO38SNLV/Z+6/XMYhhFbAAAAAOjju3LTt/I4ru33zT2eFcIuyCT/N7PeEXHc+ai4XBCYTpvNurt9X/Vgd/+iuy7MweTnSZV3sAcAAACAvtl2991D38njwLpdf5qkCkuEKfpZEGQPS5LOP8dxvIE4gOllpv9MkuS23f37u11g7bXX0KcljeUgglOiqHkiWwEAAADoiys2bBi5M6djex7LgynYYOZnJEn7kaOjo78kDmBGeBD4B/bkG+x2gTUyMrJVsgtyEIK5+/mSquwHAAAAYNZ9JY+DOuSQQ/Zx15NZHtyPnqSLzHqHx3HnPO3mfXkATIVd1ul01uzJdwj25C/PnRt8WNIdOUjigVFUfyUbAgAAAJhVmXv1s3kc2NDQ3s+QNJ8lwg4PpU1Xmtkjk6T9Ci4XBGaee/aePf0ee1RgrV279g5JH89HGPb24eHhGtsCAAAAmDXfS9ObR/M4MDN/DsuDHdhg5mfEcfuhcdz6GXEAs8F/vv3DAPdIsMfD8OoHJW3LQSL79nrBe9gYAAAAwCwdkrh9Jo/jqtVqe0l6KiuEe+lJ+nCl4su2Xy7IpwsCs/ZaEbx7Or7PHhdY9/zGxT6Zh1DM9PdR1Hws2wMAAACYcRu3bKl+IY8DC4Khp0jamyXCdj9x1/FJ0n5lp9P5HXEAs+o3adr68rQ8t0/HN8kye5fycRaWZZlfuHLlyiH2CAAAADBz3O0Tef30QXf7W1YIkm5xtxclSfuRadr+VREediwpBo2Z3jZde3daCqyxsXXtHJ2FtWJi4rY3sU0AAACAGZMFQfeCPA5s0aJlh0j+LJao1HpmunBoyJanaesTKk7xkykfH6IGTNVv4rj9v9P1zYLp+kbuwTuVj7Ow5O5viqLmw9grAAAAwPQz80vjOB7J49gqlclVkuawSuXkrl+aBY+I4/ZprVbr9gJOcZJVxuC8Vkzf2VfSNBZYabq2I/kncpJT1d0v3n7zRgAAAADTWhIE5+T4gOmfWKFSmpDshWnafmgcr/t5ESfYbDbnSTqApcaA+E0ct784nd8wmNZvFvjbJN2dk7COMBt6L3sGAAAAmE52aZK0fprHkYVh4+HuOpo1KpWuu50/NGRHJknrUyrwfaK2bu0dL6nKkmNAvFHT/Gmf01pgjY6OppI+mKPAXh5FzaewbwAAAIBpkUl6S14Hx9lXpfMjKXhImrZWF/RywT89eA+Cv2PJMSB+kCTtr0z7Y2C6v+HcuZX3SLo1L69h7v7xMAwPZv8AAAAAe+yzSdK6Oo8DW7Bg+b7u+huWqPjcNS75KUnSfkySrPt1Gea8cGFjiaR/ZPUxCA9RM3v9THzjaS+w1q5de4dk78xReDVp6CL2EAAAALBH7pK6r83r4ObO3fr3kvZhmQqtK/kH582rHJkknUtU4MsF723FihVzKhX/pKR5bAEMgP+N49bPZuIbBzPxTefPr14kaW1+8vPnhWHzhewjAAAAYDffUbveliRJnNPhmeRnsEpF3n/+Q7PecUnSedU9J02UQ7PZnHf77Xf9l5k9hl2AAbBNqrxxpr75jBRYIyMjW93tNTl7yvtwrdY4jv0EAAAA7OI7adeaxYsXfDCv4wvD+tMlHclKFdKYma9K085j4zi+pkwTX7x4+NGTk/4LSc9mG2BAXJAka2+aqW8ezNQ3TtPWl9z9GzkKcr6Zvrho0bJD2FMAAADAlHXN7MVXXnnlZF4H6K7XskzF23fudv7cuZWj4rjzaZXkckFJiqLooFqteV4QBN+XdAxbAQPilrlzK2+fyR8wox/B6W6vMtOvJQ3lJNB6pTL535KeLKnL/gIAAAB29p7e356m7Z/mdXzDw8MPyTIuryrYnvthEGSnJkm5zriSFIRh/WR3e7+ZL2AnYLAet3bmTF/eG8zkNx8ba1/vro/kLNfHR1HjXWwvAAAAYGfsF4sXH/LuPI8wy+xfWKfCGJP8BWW8XLBWaxwbho0rJPuUJMorDNYrhenKNG19aqZ/TjDTP6Ba9bdKmshTuO76lzCsP59tBgAAANynDZVK9rd5vnRw8eIlDcmew1INvElJ79+6dd7yJOlcrBJdLliv1w8Mw8aHzfRLSSewFTCAMil4xT3/O7NmvMDqdDq/c7dX5Sxgk+zjw8PDXE8MAAAA/KWee/B3nU5nbZ4Haeav1gzfFgUz7nuVih+bJO1/ufXWGzeWaN4Whs0X9np2g6SXz8axOTAzz8P6cByv+/ms/KzZmlStVv+6mT05Z1mPSN0TkiS5jW0HAADuLQwbo5IikkAZueu1adp+X57HWKsdNmzWvUnSPFZsICXu9i9p2vrvsk08iqIHuFc+LOlRbAMMuHTz5qGjNmwYuXM2ftistbzVql4haXPOwl4mVS+r1Wp7se8AAAAASbKL815eSZJZ782ivBpEk2Z639at844qW3m1YMHyfcOw8X73ylWivEIRXi1Mp89WeSXNYoHV6XTWmtnbcpj5CWZDnxWnHgMAAACXLVp08IvzPsgoipZJ/o8s18D5bq/nD47j9mtLdrmgwrD+/Llzt1wvicteUZjXizhuf2E2f+CsXmcbx633SfaLHAb/9DBsfEKzeEklAAAAkDM/6Xa35Pqm7b+XZZWzJA2xZAMjlfwFSdJ+4vh457oyTTyKomW1WuNrkv2PpJCtgIK4w736itn+obN9o7huEPReJGlrDhfg5Fqt/i72IQAAAMrHfjE0ZE+bmJjYlPeRDg8PH2Omv2PNBsKkmb1n27a7S/fpglEUzQ/DxtvdK9ea6SlsBRTsNWN1mt48Ots/ddY/6WB0dPRayc7O5RKYnRmGzVexGQEAAFCawxCzyzdvrj6x1WrdPgjjdQ/eLj6xbRB8v1LxY+O49fr169ffVaaJh2H9GVJljaQ3S5rLVkDBXJYkrU/15fWqTxOuhmH9CskemsPFyNzt79O09T/sSwAAyotPIUQZuOvr0uRz0jS9e0Aelw+XdIW49UeexZK/Okk6nyvbxBcvXtKoVHrnuduz2AYoqA3Vqo5pt9tj/fjh/frNRTfL7IXK36cSSlJg5hdHUeNp7E0AAAAUl3/qwAP3edaglFeSAnedL8qrvNrm7ud0u1uOLFt5tWLFijlh2HhjEGTXUV6h0K8abqf2q7yS+njq7dhY+3rJXpPTdZnjri9GUePZbFEAAAAU7RjEzM5Oks4L16xZs21QBh1F9X8y00NYvlz6XqXix6Vp5w2DcB+16d2XzRN/97u7rpL0Tkl7sRVQYJekaeu/+jkA6/8Dvv6lHLfUk5L/QxlPfwUAoOy4hBAFdYeZ/j6O218dpEHX6/UDez27UdIhLGGe+KikVydJ5/Nlm/nw8HAty4L3S/pb9gFKYO3mzUPHbtgwcmc/B9H3mx8Ggf5RUienizQk2X+FYfMF7FcAAAAMNv95EGQrB628kqRu184W5VWeTLrb+Vu3zl9RwvKqGkX11e7B9aK8Qjl0JZ3c7/JKysn142HYeLykbym/nybSc7eXpGnrE+xdAADKgTOwUCA9Se9Kkvbbth+IDJQoih7gXrlKUpWl7D93/4ZZ9fQkWXtT2eZeqzUeYaYPS3oQOwEl8uYkab8zDwPJRWGUJO3vmtk7crxgFTP/WBg2X8beBQAAwOCwa9z1mCRpv0UDWF5JknvlfFFe5UHbTM9J085TylZe1Wq1BVHU+LiZfiTKK5TpFcT8m0nSfndexpObM57iuHW2ZN/K8doFkl8URfXT2cYAAADIubvN/MxFiw5emabtHw9ucdD8R0mPZTn7aqukd7pPHh3H7f8t2dyDKKq/1GzoRne9SHwCJkrFR7Os+w+SsryMKFcPwEWLlh1SqUxepZyfru/u56Rp542SnE0NAEAxcQkhBvWIQ/LPdrv2homJ9rpBnkgURaF75VpJB7Cs/Tru0deDoHd6HMe/Ldvca7XGcdsvF3wYOwEltE2yE5Ok9dM8DSpXp+KOj4+sj6Lmc939h5Lm5HUlzezMMGwsGxqyVa1Wawt7GwAAADnw7SzzM8fGOlcWYTLulY+K8qpfYsnflKadi8s28aVLl+6/ZUv2NjN/paQKWwFl5K5Xp2m+yisphzdNj+PWz9z1mgFY0+dOTvpXms0mL6oAAADoGzO7XNLjk6T9pKKUV2HYfKGkp7K6s26LpHe4Ty5PktKVVxZF9ZO3bOndYOani/IK5fXpNG1/KJcP0vy+aNU/ItkA3DTdf+sePDNNWzewzwEAKA4uIcQAuMLdz03TzqVFmtTw8HAty4JrJR3IEs+q72SZThsba19fvuf7pUdI2YWSP4ltgJK7yn3y0Wma3p3HwQV5Te2AA/Y9fftvk3LODjfzK2q1+hPZ6wAAAJhp22+38fgkaT+qaOWVJGVZ8O+ivJq9oxnTOnf76yRpP7Fs5dXChQv3jqLmuVLvWsorQGNmvWfmtbyScv4pCgsXHnZotdr9uaTGACx2112vStP2hex7AAAGH2dgIWduk+zTZt2Px3F8TVEnWas1/slMH2O5Z8UWM3uP1D0njuPNZZt8FDWe7e4flGyYrQBoi2SPy9tN2/9c7j8GNAybD5b8ckn7DMjCf7rb3fLPExMTm3gMAAAwuCiwkAOZu3/LTB+fP3/O/42MjGwt8mQXLaofXanYLyTtxdLPuMuCIDtjdHT05rJNPIqiZVlWucBMT2EbAJLu+fTaFyRJ55K8D9QGIc0oajzNXV9Wzj418X5ivUYKnpska2/isQAAwGCiwCqVnqSfuWsiCLTcXUf3cSy3SPqmmX9j27bKt265Zd1EGRagVqvtJQ393Ewr2I4zaq27n1HES093ptlszut2daa7v17SPLYCcA93PytNO2cPwlhtUEKNovpL3e3fBmW8ZrrT3V+cJJ3P8ZAAAGDwUGCVg5l/Mwj08k6ns/aP7zujUKo8TNIJ7nqopIdI2nsmjhskrTPza6Tgp1nm30zT9q+2/3mpRFHjY+76J3bkjFlv5u+Qso+W9HLBp7rrAkmHsRWAP/GJJGn/06C87tggJRuG9XdJ9oZBGrO7PtbrbTmDSwoBABgsFFjF527np2nrVZKynXxpJQyXHCP1lrtbXbLhIMga7ja8fY/MlbT/Dv7eNkm3Snab5LdJtl5SapZd5x78ZuvWuWtuvfXGjWVfhyhq/IO7Ps2OnDFXdLvVZ09M3HxL2SZeqx02bNb9oKRnsw2AP2Xm31y48JBnXHnllZMDM+ZBy7hWa1xipn8YsHHfINnfJUnrah4mAAAMBgqsovMPJknnVTPxnZctWzb39tsrcyinpvI4W3qE1LtSg3O/20Hz6253yyPL9sv0lStXDo2NrX+Vmb1FM3P2JDDort68eejEDRtG7hykQQeD9k5j8eIF/yjpqwM27iMl/2mtVn+dpAqPFQAAgP4x8y8nSefVM/X9R0ZGtlJe7dw9973qfVaUVzOlGwTZyWUrr6Ko+diJiVuvNrNzRXkF7PBlamjInjpo5ZU0eAWWrrzyykmz3nPN7PIBG/pcMzs3DBuX3/ObJgAAAPTBWJZ1X6wS3mcqZ8xsziclPYgoZsznR0dHry3LZJvN5qIwbFzi7t/t8wcxAHmW9Hr2pFarNT6Igw8GcdBxHG+eMyc4SdJVAzj8h0u9q8Owecag5g8AADC47G1pmt5KDv0VRc23Sv48kpjBnW4qy4dJVWq1xqmTk36DpJM1eLfJAWbLrb2e/9X4eKs1qBMY2AJl7dq1d/R6Q0+RdMMADn++5B8Iw8YVUbTkgTyOAAAAZoOPHnDA3v9BDv1VqzX/xt3fQhIzfKAX+NVFn2MUNR8Who2fm+kC7fiDFADcY2MQZE8bH+9cN9DPa4M8+PHxkfVBkD1B0k0DOoUT3LNf1mrNc+65BwAAAABmipn995o1a7aRRP8MDw8fb+afEGfJzLhqtXpbUecWRdFBYdj8N3f/saTjWG3gfm1096eOjo7+YtAnMvCXsI2OjqZBkD1O8t8O6BSGzPz1ZkPXhGHj6Ty2AAAAZoa7vkgK/RNFUZhlwZckzScN7Car1Rovcq/cKPlLxS1ZgJ3Z6O5PTdPOFUWYTCEe8KOjo6nZQJdYkrRU0mVh2Lh0eHj4MB5nAAAA0/smPknaPyeG/jjkkEP2kSpfllQjDeyOMFzyoDBs/MhMH5e0gESAnb/uufvTilJeSQVqrOM4TgpQYknSM7IsuDYMG2/nskIAAIDpYeY/kdQjidm3bNmyuXPm7PVFd60kDeyqgw5atl8YNj8oZb+U9AgSAabk9+XVj4o0qUKdchnHcTI5WXm0pF8P+FTmSXqz2dBNYVg/hcceAADAnnG3H5FCX1Q2b+5eIumJRIFdVavVT5o/f9u1kq+WVCURYEp+J+nJRSuvpAJeM3zLLesmKhV/nKSfFGA6oWSfCsPGd4eHh4/hcQgAALDbKLBmn9VqjY9I/jyiwK6IoujwWq3+dTP7P8mGSQSYsgkpeFyStH9SxMkV8qZ3nU7nd93ulidJ9q2CTOlxWRZcVas1zzvooGX78ZgEAADYJZPukz8jhtkVRY33mOnFJIGp75lofhQ1z3KvXGNmTyYRYJe0zXqPTpJ1vy7qBAv7qQ0TExObhob0TDP/ckGmNGTmp8+fP3lDFNVPFh89DAAAMFVXpWl6NzHMnjBsvNFd/0ISmKparfks98r17v5WSXNJBJg6M10ndR8Vx/FvizzPQn/saKvV2hLHnedIuqhA01rsbpeEYeOHYdh8MA9VAACAneLywVkURfXVkt5JEpiKhQsbS8KwcamZf0lSg0SAXePuPwwCf1SSJHHR5xqUYD17SdJ+hZmfISkr0LweJfmVYdi4uFar8TGyAAAA9/nmnhu4z5Zarf46d/sgSWBnVq5cORRF9dXVqn4j6RkkAuyWLwRB9pROp/O7Mkw2KMuqxnHnPMn/RtKWgq3fKrOhG7f/pqvC4xcAAOBPeK9X+TExzLwoqr/ezM4lCexMGDYeNz5+66+3l537kAiwGy9ubucnSfv5cRxvLsucgzItcJJ0Pm9mT5V0W8GmdpC7fTAMmz+JoiUP5aEMAADwBzdOTNx8CzHMrChqvMfdziEJ3P8+icIwbP6PpO9KOopEgN3Sddcr07S1WsW6ymyngrKtdBy3vl+p+EPdtaZ4s/Pj3bOfhmHj4kMPXbKQxzUAACg7d11OCjPKwrD5QXe9lihwP6r3XDFSuU7y5xMHsNs2uPtT07T94TJOPijjpDudztotW4YeIemyIr6JkLRqaCi7IYrqp0mq8hgHAABlZWZXkMKMqdRqjX+XfDVR4L4sXjz86DBsXuVuH3TXfiQC7LYbzHonpGnn22UNICjrxDdsGLkzSdrPMrP3FHSKB7jb+WHYuHJ4eMljeKwDAIBSvtkNetzAfQYccsgh+4Rh40tmejFpYEcWLjzs0DCsfzIIgh9I/gASAfbI1+bOrZwQx/FvS/2aXvJNkMVx6/Xu9teS7ijoHB+YZdkPwrBxaa22tM7jHgAAlIW7xkdHR28mienVaDQWz5271/fFJ8fhPo4xw7B+SrXaXSPZC3TPFSIAdvelzO3cJGmftHbt2jvKHkbAfpDStPVlqfJQya4p8DSfYda7LoqaZy1btmwuqw4AAIrOzH5ICtNreHj4mG5XP3HXStLAn6vVGseGYeMKyT4laQGJAHvkNjM9PU1bZ0rqEQcF1h8kydqbzLoPM9N/FHiae7v7Wzdv3nZNFDWeyqoDAIAiM8u4/9U0CsP6E7Is+JGkBmng3prN5gG1WvM8M/1C0gkkAuyxq7pdHR/H7a8RxR9RYN1LHMeb47j9T5K9XNLmAr+dO9xdXw3DxhcWL17CGxAAAFBIWWbc/2qahGHzhZJ9TdL+pIF7H1iEYfMFk5N+o5mfLqlCJMAecXddMH/+0CMmJtrriONPUWDtQJK0PpJlWinp6oJP9dlBkF0fRc2zms3mPFYeAAAU5qjadGeatn9NEtN2RPVKSUMkgd+r1ZYsD8PGNyX/pKRDSQTYY7e6+7PStH36yMjIVuL4SxRY92FsrH390JA93N3Ol+QFnup8d3/r5GR2UxjWT2HlAQBAEWSZ/0TcMwSYdrVaba8oap5llv1G0hNJBJgW3w2C7EFp2rmUKO4bBdb9aLVaW9K0tVryZ0qaKPZsbViyT4Vh4ytRFB3O6gMAgIF+Z2PG/a+AaRaG9eeZDd3k7m+VNIdEgD221V2vS5L2k0ZHR1PiuH8UWFOQJJ3LhobsSMn+vQTTfZp7ZU2t1jxvwYLl+7L6AABgEJnZ5aQATI8oipaFYeOrkn1WUkgiwLT4jWQnpGn7vZIy4tg5CqwparVatydJ62WSP1/S+oJPd8jMT587d8sN2y8rNHYAAAAYIJNZtu3nxADsmSiK5kdR8yz3yjWS+BRzYJpeo9zt3AMO2Of4JGldTRxTR4G1i5Kk87lut3qMpC+UYLq17ZcVfrter69g9QEAwIC4Kk3Tu4kB2H1hWH+GVFmz/XJBPvAJmB5XS8Hxado6c82aNduIY9dQYO2GiYmbb0mS9nMlP0lSuwRTfnyvZ1fXas3zli5dykcnAwCAXDMTlw8CuymKojAMGxdLdqm7lpAIMC02m9nZBxywz8OSZB2fkLubKLD2QJJ0LnOfPNrdzlXxP+Wmauanb93auzmK6qvZOwAAIK+yzH5ECsCuWbly5VAU1Ve7V26QtIpEgGnz1V7Pjo7j1lmcdbVnKCH2UJqmd6dp68ws84eZ6coSTPlgd/tgGDYur9Uax7IDAABAzniWVX9MDMDUhWHj8ePjt/7G3T4oaR8SAabFmLv9bZK0nz4+3moRx56jwJqunTnWuTKO2w+T7OWSbivBlB9hpl+EYePDURQdxA4AAAA5ccP4+Mh6YkDZbdq0qbuzr2k0GoujqPGfkr4j6UhSA6bFpKT/b/PmoSPTtPU/xDF9KLCmVy9JWh+Russl/zcV/6MwK5Je7l65KQybL2M/AQCAfnMXlw8Cks+fP//+bnFSjaL66l5PN7jr74gLmDbf6fX8wUnSfs2GDSN3Esf0onCYAUmS3JYknX921/GSflKCKR8s+UeiqPHzMGyewA4AAAD9YmZXkAIg27ZNT9nRf6jVGo8Iw8Yv3e2D7tqPqIDp4KOSPz9J2k8cH+9cRx4zgwJrBqVp+6okaT9Ssn+UNFH4h6xrpeQ/DsP6Jw49dMlCdgAAAJj1N7dBjzOwAElm/qF737O2VqstiKLGx8z0I0kPIiFgWmyV9M5ud+tRSdL5HHHM8PMaEcyOpUuX7r91a/csyU6VVC3BlO8w87fGcedDkrrsAADAoAnDxqikiCQGSpok7ZAYpl+t1viFmR5CEgPHJf1c0l2SHiZu0A5Mp6+Y9c6I43iEKGYHZ2DNkrVr196RJJ1XuQfHuPs3SjDl/bd/WuG1tdqSv2IHAACAmWecfQX82YNC9xRXTxDlFTBdbt5+ueAzKK9mFwXWLEvTdTemaecp7v5MSe0STHm5WfaNMGxcunjxkgY7AAAAzNiRumUUWACAmbLZzM4eGrJjuFywPyiw+iRNO5d2u1tWuPs5kraVYMrPCILs2iiqv37FihVz2AEAAGC69Xr2bVIAAMyAL7hXjozj1lmtVmsLcfQHBVYfTUxMbErTzhukygPc9fUSTHkfdzvn9tvvuiaKmk9hBwAAgGnUGhtrX08MAIBpdL27PylJ2s9N07Ud4ugvCqwcSJK1N6Vp+6nu9tdmWleCKR/h7l+LosYXFy5sLGEHAACAadAiAgDANNnortcuWrTgQWna4ezenKDAypE0bX1Z6q1w97MkbS76fN3119Wq1kRR86woiuazAwAAwB6YW6TJLF26dP/h4WE+9Q8AZvkwVdKnq1UtT9P2+6688spJIskPCqycieN4c5p2zu717Gh3fbEEU57v7m+VKmtqteZfswMAAMBuOkZSddAnEUXR4bVa4/ytW3uj7sELWFYAmDW/zrLsxCRpr2q322PEkT8UWDk1Pt5qpWn72UFgT5F0Y9Hn664lZv7FWq3+9TBcegQ7AAAA7KJ9a7XmMwZ07Far1Z8Uho3L3Cs3mOk0SfuypAAwK37nrlOTpL1ybGz0cuLILwqsnBsdbX3jgAP2eaC7v17SXUWfr5k9WepdU6s1zznkkEP2YQcAAIApv7EN/J3Lli0bmEsJw7D54DBsvCMM6zea2TclPZ335wAwazJ3fazXG1qepu0PSeoRSc5f54kg/9asWbMtTTvvMesdaab/0j3X5RbZHDN//Zw5e91QqzX/lh0AAACmwl1Hb97cvWTFihVz8jrGWq1xbBg23hmG9Zsk/5WkN0l2OKsHALP6ivHzIMhOSNP2S8bHR9aTx2AwIhg8UdQ80V0XSP6Akkz5B2a90+I4vobVBwDMljBsjEqKSGIAD0tcv5T0Wffsp2a9K9M0vbtf77UXLaofVa3qke7BoyR/jKTmlP+y6cI4bp+Wh0xrtcYvzMRN5QEMuvXuekOatj8hKSOOwVIlgsETx60fSDouiuqvcLezJR1Q8Cmf6F65KgybHxoa0lmtVut2dgEAALgv24uWh5gFkoJuFDV+Leknkv/MvXLN3LnWWrt27R3T+TOXLVs2d9OmyaVm2eFBYEe5B4+Q/JGSDnaXin8CPQDkWtdMHwkCf0un0/kdcQzo6zsRDLaFCw87tFrtniPphSVZzwl3e0Oatj7JO0EAwEziDKzC22Cmde5qmWmd5KOStmRZsNEs67rrd0EQdHu9bGO1WtnbPdvH3fcx0wHutu89/98WSjpc0jJJdU3z7Tk4AwsApuO51C53t9OSZN2vSWPA15IIimHx4vrKILALJZ1QjichXelupyZJ66esPgBgJlBgIQfvdyiwAGD3jUl+ZpJ0LhEnPxQCN3EvyiNzrHNlkrQfIfkLJN1S9Pm6a6XkPw7DxsULFx52KDsAAAAAACBp0t3O37x56Mgk6VwsyqvCoMAqFk+SzsWVih/pbuer+B8DapJWVavdG6KovlpShS0AAAAAAKX1vUrFj03T1uoNG0buJI5iocAqoE6n87s0ba2W7CGSflSCKR/obh8Mw8Yva7X6o9gBAAAAAFAqieQvSJL24zudzhriKCYKrCI/gpPW1UnSfozkz99+Y9Kie7CZ/TAMm5+t1Q4bZgcAAAAAQKFtc7fzt227+/eXC6LAKLCKz5Ok87lud+tRZna2pG0Fn69J/jyz7vVR1DxrxYoVc9gCAAAAAFA4l1UqflSatlavX7/+LuIoPgqskpiYmNgUx62zpMoD3PX1Ekx5b3d/6+2333XN8HDzyewAAAAAACiEEclPSpL2SZ1OZy1xlAcFVskkydqb0rT9VHd/pqRWCaZ8RJb518OwcenixUsa7AAAAAAAGEh3m9nZQ0P2gCTpXEYc5UOBVVJp2rnUfXLF9ssKt5Rgys8Iguy6KGqe1Ww257EDAAAAAGBgXJZlwdFx3Dqr1WptIY5yosAqsTRN747j1llmvQdI+koJpryXu791cjL7TRQ1nsYOAAAAmOJBQyAjBQCzzV1rJD0hSdonjY2ta5NIyV+LiABxHI8kSfsZ7v4kSTcUf8Z2uLu+EoaNb9VqzSPZAQAAADs9iDyAFADMok1mdvaBB+5zXJK0v0sckCiwcC9p2vn20JAdK+lfJd1dgik/0cx/FYaNt9Vqtb3YAQAAADtkkg4lBgCzwCW7eGjIlsVx66w1a9ZsIxL8HgUW/kSr1dqSJO13mPWOkHRJCaY8T9K/mg3dFIb1U9gBAAAAfyoMlx4uaV+SADDDrnb3xyRJ6wWtVmucOPDnKLCwQ3EcJ0nSPmX7ZYXXl+G9mWSfCsPmN7msEAAA4I/Muo8lBQAzaINkr0iS9kPStPMj4sB9ocDC/UrTzrcXLVrwIHe9VtLG4s/Yn2Tmv4mixnsWLFjObxoBAEDpudvfkAKAGZBJ9u9S94gkaV0kqUckuD8UWNipK6+8cjJN2++rVrVc91xW6AWf8pC7Xjt37pYbt19WyKfuAACAUgrDJQ+S9DiSADCdzHSlZI9MktbLkiS5jUQwFRRYmLJ2uz2WJO1Tsiw7UdKvSzDlxZJ9KoqaP9j+5g0AAKBU3LNzxC/zAEyfCXd7URy3j0+S1k+JA7uCAgu7bGxs9PIkaa9012mSflf8N27+aCn7ZRQ1LqjX6weyAwAAQBmEYfMFZnoKSQCYBl3JzhsasiPTtPUJFf+qHswACizsrl6ati/s9YaWu+tjkrKCz7fqrlN7PbuxVmv8E48dAABQZMPDw8dLfhFJAJgG3zfrHZckrTNardbtxIHdxUE49sj4+Mj6NG2/xF3HS/pJCaZ8iJk+FoaNX4Rh4+HsAAAAUDTDw8MPybLgq5LmkwaAPZBK/oIkaT8+juNriAN7igIL0/PMlLavSpL2o9z1YknrSzDl4yT9qFZrfHTRomWHsAMAAEAR1GqNF2VZ8H1JC0gDwG7a5m7nbtt29/Ik6VwsLhfENKHAwnTK0rT98UrFl5vpQkndoj9+zPTiSmXyxlqt8UpJFbYAAAAYRLVa88gwbHzFTB+XtDeJANgd7v4NqfKANG2duX79+rtIBNN6AE4EmG6dTud3cdw+zd0eINm3SjDlA810YRg2rly8ePjR7AAAADAo6vX6gbVa8xwzv1rS00gEwG6KJX9BmnaekiRrbyIOzAQKLMyYNG3dkCStv3L3Z0rqlGDKDwqC4Idh2Li0VjtsmB0AAAByrBpF9Zf2enaDmb9e0lwiAbAbNm+/XPCo7ZcLAjOGAgszLk07l3a7W442s7MlbS3BlJ9h1r0+ippnLVu2jDeDAAAgV8Kw/oQwbF7lbv8m6VASAbCbLut2tYLLBTFbKLAwKyYmJjbFcesss94DJH2tBFPe293funnz5G+iqPFUdgAAAOi3KIoOD8PmZyX7tuQPIBEAu2nETE9PkvZJExPtdcSB2UKBhVkVx/Fvk6T9tO2XFbZKMOUj3PXVMGxcumhRs8kOAAAAs63ZbB5QqzXPca9cI/nzSATAbrrbzM6eP3/omDhuf5U4MNsosNAXadq51Kz3+8sKt5Rgys+oVPy6KGqe1Ww257EDAADAbLzXD8P6KZOTfiP3uQKwhy7LsuDoOG6dNTIyspU40JcXNSJAv8RxvDmOW2dVKr5CsktLMOX57v7WyUm/Ngzrz2AHAACAnbDd/Yu1Wv2JYdj4tWSfEve5ArD7rjWzxyVJ+6SxsXVt4kA/UWCh7zqdztokaT1T8idKur4EUz5MskvDsPGtxYsbR7EDAADAjrjbvrv6d35/nysz+5akY0gRwG66w8zPPOCAfVbGcev7xIE8oMBCbiRJ5zvz5w8dK+lNkjaVYMpPDAL9Kgwb71i4cOHe7AAAAPCnPJzqVzabzQPCsPE+98q13OcKwJ488Uj+ycnJYHkcd85ds2bNNiJBXhgRII9qtcOGzXrvL88bMB+V9Jok6XyO1QeAfAjDxqikiCTQR5uGhmxBq9W6v/uFVsKw+RLJ3ybpECIDsNvlgOlKdzs1SVo/JQ3kco8SAXJ+8PB4M13grqNLMuXv9Hp++vh45zpWHwD6/hpEgYUcHFD6GXHcOW/He7T+BCn4gOQPICkAe+A2yd6UJK2PSsqIA3nFJYTItSRpf3fhwgUPlvQaM91Zgik/oVKxq8Ow8f6DDlq2HzsAAIByc7d312rNv773n9VqjWOjqP4lyb5NeQVgD/QkXWTWOyJJWv8myivkHGdgYWA0m81Fk5M6V/JVJdm7Y5K/Pkk6n5bk7AAAmF2cgYVcvWk3XeeulqTDJC0nEQB76MfuOjVN278iCgzMayERYNAMDw8fn2XBBZIeVpKH6S/M7NQ4XvdzVh8AZg8FFgCgaNw1HgT+1jjufEyccYVBOzImAgyoIAzrJ0v2PpXjhqWZpM/0ekOvGR8fWc/yA8DMo8ACABRI190+PG9e8Ja1a9feQRwYyBKACDCgsiTpXFyp+HJ3O1/3XL9d9Mfqqkpl8oYoqq+WVGELAAAAAJiCH5j1jkvT1mrKKwwyzsBCIdRqjWPNdKGkR5Rkyle567Q0bf+Y1QeAmcEZWACAAZdK/oYk6Vwi7qmLAqDAQqH2cxjWV0n2HkkLSzBfl/Tpycngtbfcsm6C5QeA6UWBBQAYUJPudtG2bXPffOutN24kDhTmgJ8IUDTNZvOAbdt0ppm/StKcEkz5djM/Z//99/3AmjVrtrEDAGB6UGABAAbQd7JMp42Nta8nChQNBRYKq1ZbsjwIeue721+VZMo3uAer03TdN1l9ANhzFFgAgMHho5LenCSdi8kCRUWBhcKr1eonmdmFkuolmfJl7pVXpunaDqsPALuPAgsAMAA2m9l7qlWd02q1thAHiowCC6VQq9X2CoI5r3P3MyXNLcGU7zaz986bV333yMjIVnYAAOw6CiwAQM5d1u3q9ImJ9jqiQBlQYKFUoiha5l45T9LTyjFj/62ZnRHH7a+y+gCwayiwAAA5fo+/Oo7bXyMLlAkFFkqpVqufFAR2nruWlGTK/HYGAHYRBRYAIGc2mdn7uMoCZUWBhdKKomi+FJzubm+WtE8JprzZzN4jdc+N43gzOwAA7h8FFgAgR7jPLUqPAgscoIRhJFXfJWlVSaYcS/4mPqEEAHb2+kCBBQDouxvc/fQ07XyLKFB2FFjAHw9UHm+mC9x1dEmm/J1ez08fH+9cx+oDwA5fFyiwAAD9cruZnxXHnQ9J6hIHIAVEANwjSdrfXbhwwYPN/AxJG0sw5SdUKnZ1rdY8b8GC5fuyAwAAAIC+c0mXTE4GR8Zx5zxRXgF/wBlYwA4MDw/Xsiw4R9LJJXmcpJK/IUk6l2x/0QSA0uMMLADALLtK0qlJ0v4JUQB/iQILuB9R1DzR3c+X9MCSTPkHZr3T4ji+htUHUHYUWACAWbLBzN8Wx50LJfWIA9gxCixg56pRVH+Ru71L0sElmG/X3T48b17wlrVr197B8gMoKwosAMAMyyR9xn3y1Wma3kocwP3jHljAznXjuPPvUne5u52//YWmyKpmfvrWrb2bo6i+mucJAAAAYLrZL8yChydJ+xTKK2CKjxoiAHbN8PDwQ7IsuEDSCWWYr7t+GQR2ahy3fsbqAygTzsACAMyAMcnP5N6zwK6jwAJ2TxCG9ZMle5+kQ0ow30zSZ3q9odeMj4+sZ/kBlAEFFgBgGk2620VbtlT/dcOGkTuJA9iNg3AiAHZLliSdiysV//1lhUW/2WIgaVWlMnnj9ssKK2wBAAAAYEq+FwTZcWnaWk15Bew+zsACpkEYNh8s+YWSHlmSKf/K3U9L084VrD6A4j63cwYWAGCPJJK/MUk6FxMFsOcosIBpfDyFYX2Vu51rpkUlmK9L+vTQkL2u1WqNs/wAioYCCwCwmybd7aLJyU1vWr9+/V3EAUzTATcRANNr4cKFew8NzX+tu79B0pwSTHmTmb1v//33fteaNWu2sQMAFAUFFgBgN3zb3U5L09YNRAFMLwosYMYOfJYe4d4938yeXJIp3xgEtnp0tPUNVh9AMZ7HKbAAAFN2s+RnJEnnMqIAZgYFFjDDarX6SWZ2gaRGSaZ8WZYFp46NrWuz+gAGGQUWAGAK7jaz91arOqfVam0hDmDmUGABs6BWq+0VBHNe5+6vlzSvLC/k8+ZV3z0yMrKVHQBgEFFgAQB24rJez04bH2+1iAKYeRRYwCyKomiZe+WDkp5ekimPSDojSdpfYfUBDBoKLADAfbjJzFbHcevrRAHMnoAIgNkTx/FIkrSf4e7PlLS2BFNeJumyMGxcWq/Xl7IDAAAAMMA2mdnZBxywzwMor4DZxxlYQJ+sWLFizh13bHy5u71D0j4lmPI2d/sIHycMYFBwBhYAYDuX7PPuldek6c2jxAH0BwUW0GdRFIXulXdLWlWSKceSvylJOhez+gDyjAILACDpanc/LU07PyIKoL8osID8HCg9zl0XmGlFSab83UrFT+90OmtYfQA5fV6mwAKA8rrdzM+K486FknrEAfQf98ACciJJ2t9bvHjBsWZ+hpnuLMGUH9/r2a9qteZ5Bx20bD92AAAAAHLAJV3S7VaXx3HnPFFeAbnBGVhADjUajcXdrs6VdHJJHqdjkp+ZJJ1Ltr9pAIC+4wwsACjZwbHpSnc7NUlaPyUNIIePUSIA8mt4eMljsiy7QNIDyzBfd/9hEFROi+N1v2H1AfQbBRYAlMYGM39bHHcukJQRB5BPFFhA/gVhWD9ZsvdLWlCC+WaSPuM++eo0TW9l+QH0CwUWAPC+E0CODoyJAMj/C2uSdC426y13t/NV/OvwA0mrzIZujKL6ap6nAAAAMN3c/YdmwbFJ0j6F8goYDJyBBQyYxYvrK4PALpD08FI8SXEvAgB9whlYAFBI3HsVGNRjQyIABvOxG4b1VZK9V9KhJZivS/p0t1v9l4mJm29h+QHMBgosACiUSXe7aMuW6r9u2DByJ3EAg4dLc4DB5EnSuXhoyH5/WWG34PM1Sauq1e7vLyussAUAAAAwRd+tVPzYNG2tprwCBvugEMCAC8MlDzLzC9z90SWZ8tXuflqadn7E6gOYuedWzsACgAEXS/6mJOlcTBTA4KPAAgqkVqufZKYPSTZcgum6ZJ93r7wmTW8eZfUBTDcKLAAYWNvc7SOTk5vetH79+ruIAygGLiEECiRNO5d2u1uPMrOzJW0t+HRN8ueZda+PouZZK1asmMMOAAAAKL3LKhU/Kk1bqymvgMIdAAIoojBceoR77zwzPaUkU77JzFbHcevrrD6A6Xke5QwsABggI5LOSJL2V4gCKCYKLKDg7rms0M6X1CzJlC/r9ey08fFWi9UHsCcosABgINxtZu+dN6/67pGRka3EARQXBRZQAlEUzZeqr3f310uaV5Y3MtWqzmm1WlvYAQB2BwUWAOTeZVkWnDo2tq5NFEDxUWABJTI8PHxYllXeLfnzSjLlmyU/I0k6l7H6AHYVBRYA5NaNQWCrR0db3yAKoDwosIASqtXqT9x+WeFRJZnyt93ttDRt3cDqA5gqCiwAyJ1NZva+/fff+11r1qzZRhxAufAphEAJpWnn24sWLXiQmZ8haWMJpvxEM/9NrdY875BDDtmHHQAAADBQXNIlQ0O2LI5bZ1FeAeXEGVhAyUVRFLpX3i1pVUmmnEj+xiTpXMzqA7g/nIEFALnwK3c/LU07VxAFUG4UWAAkSVHUfKy7XyDpmJJM+XtBkJ0+Ojp6LasPYEcosACgr35n5mfHcedCST3iAECBBeDeqlFUf6Vkb3PXfiWY76S7XbRlS/VfN2wYuZPlB3BvFFgA0BeZpM/0ekOvGR8fWU8cAH6Pe2ABuLduHHfOq1ZtuWT/vv0NRJENmfnp8+dP3hCG9VNEqQ8AANA37vqlmT0iSdqnUF4B+HMcrAG4T8PDw8dnmV0o2UNL8pT4CzM7NY7X/ZzVB8AZWAAwa24z87fHcecCFf8XqAB292iNCADsRBCG9ZMle7+kBSWYbybpM+6Tr07T9FaWHygvCiwAmHFdd/vwvHnBW9auXXsHcQC43wNTIgCwE1mSdC426y13t/NV/JtoBpJWmQ3dGEX11ZIqbAEAAIBp9wOz3nFp2lpNeQVgKjgDC8AuqdUax5npAkmPKMmUr5J0apK0f8LqA+XCGVgAMCNSyd+QJJ1LJDlxAJgqCiwAu/XcEYb1VZK9R9LCEszXJX16cjJ47S23rJtg+YFyoMACgGk16W4Xbds298233nrjRuIAsKu4hBDA7vAk6Vw8NGRHbr+ssFvw+ZqkVUND2Q3bLyussgUAAACm7Du9nj84TVurKa8A7MlBGQDskVqteaSZzpf8SSWZ8g3ufnqadr7F6gPFxRlYALDHYsnflCSdi4kCwJ6iwAIwbWq1+klmdqGkekmmfJl75ZVpurbD6gPFQ4EFALtts5m9p1rVOa1WawtxAJgOFFgAplWtVtsrCOa8zt3PlDS3BFPeZGbvmzev+u6RkZGt7ACgOCiwAGC3XNbt6vSJifY6ogAwnSiwAMyIKIoOd698UNLTyjFj/62ZrY7j9tdYfaAYKLAAYJffC50Rx+2vkgWAmUCBBWBG1Wr1k4LAznPXkpJMmd86AgVBgQUAU3K3mb2Xs9EBzDQKLAAzLoqi+VL19e7+eknzSjBl7vsAFAAFFgDsFPcDBTBrKLAAzOLBYBhJ1XdJWlWOGfuopDfzyTvAoD5nUWABwH24wT1YnabrvkkUAGYLBRaAPhwU1p9gZue76+iSTPk7WabTxsba17P6wCA9V1FgAcCfud3Mz9l//30/sGbNmm3EAWA2UWAB6IuVK1cOTUysf4W7vV3SviWY8qS7XbRt29w333rrjRvZAUD+UWABwB+4pE9PTgavveWWdRPEAaAfKLAA9NXw8HAty4JzJJ1ckuekVPI3JEnnku1vBgHkFAUWAEiSrnLXaWna/jFRAOgnCiwAuRBFzRPddYHkDyjJlH9g1jstjuNrWH0gnyiwAJTcBjN/Wxx3LpTUIw4A/UaBBSBPqlFUf6W7nS1p/xLMt+tuH543L3jL2rVr72D5gXyhwAJQUpmkz/R6Q68ZHx9ZTxwA8iIgAgA50o3jznlS9zB3O3/7G6giq5r56Vu29G6IovpLeU4GAAD9Zb8wCx6eJO1TKK8A5O4ZiggA5NXw8PBDsiy4UNLDyjBfd/0yCOzUOG79jNUH+o8zsACUhbvGg8DfGsedj6n4v0AEMKAosADkXRCG9ZMle5+kQ0owX07bB3KCAgtACXA7AwCDc2BIBAByLkuSzsWVii/ffllh0W8iGkhaValM3hhF9dWSKmwBAAAwA74fBNmxadpaTXkFYBBwBhaAgVKrNY410wWSHlmSKf/KXafy0dXA7OMMLAAFlUj+xiTpXEwUAAYJBRaAgXzuCsP6KsneI2lhCebrkj49ORm89pZb1k2w/MDsoMACUDCT7nbRtm1z33zrrTduJA4AA3cQSAQABtXChQv3Hhqa/1p3f4OkOSWY8h1m/u7999/3A2vWrNnGDgBmFgUWgAL5dpbp9LGx9vVEAWBQUWABGHi12pLlUu88M3tySaZ8o3twepqu+yarD8wcCiwABXCz5G9Iks7niALAoKPAAlAYtVr9JDO7QFKjJFO+LMuCU8fG1rVZfWD6UWABGGCbzew91arOabVaW4gDQBFQYAEolFqttlcQzHmdu58paW4Jpny3mb133rzqu0dGRrayA4DpQ4EFYEBd1uvZaePjrRZRACgSCiwAhRRF0TL3ygclPb0kUx4x0+o4bn+V1QemBwUWgAFzk5nOiOP214gCQBFRYAEotO2XFX5Q0tKSTPmyblenT0y017H6wJ6hwAIwIDaZ2fs4GxtA0VFgASi8FStWzLnjjo0vd7d3SNqnBFPe7G7nT05uesf69evvYgcAu4cCC8AAuMy9+oo0vXmUKAAUHQUWgBIdjIaRVH2XpFUlmXIs+ZuSpHMxqw/sznMGBRaA3Pp1lmWnjY2NXk4UAMqCAgtAGQ9KH++u8820oiRT/m6v56eNj3euY/WBXXquoMACkDe3m/lZcdz5kKQucQAok4AIAJRNkrS/u3jxgmPN/Awz3VmCKT++UrGra7XmeQcdtGw/dgAAAAPHJV3S7VaXx3HnPFFeASghzsACUGqNRmNxt6tzJZ1ckufEVPI3JEnnku1vhgHcB87AApATV0k6NUnaPyEKAGVGgQUAkoaHlzwmy7ILJD2wDPN19x8GQeW0OF73G1Yf2DEKLAB9tsHM3xbHnQsl9YgDQNlRYAHAH1WjqP4id3uXpINLMN+uZP8hTb4xSZLbWH7gT1FgAeiTTNJn3CdfnabprcQBAPfgHlgA8EfdOO78u1nvCHc7f/sbyCKrSv5SqXpjFNVX85oAAEB/mdnlZsGxSdI+hfIKAP7sOZIIAGDHFi+urwwCu1DSCeV406wr3e3UJGn9lNUHOAMLwKwak/xM7lEJAPdzvEIEAHD/z5NhWF8l2XslHVqC+WaSPtPtVv9lYuLmW1h+lBkFFoBZMOluF23ZUv3XDRtG7iQOALhvXC4CAPfPk6RzcaXiR26/rLDoN1ENJK2qVrs3bL+ssMIWAABgRnyvUvFj07S1mvIKAHaOM7AAYBeEYfPBkl8g6VElmfLV7n5amnZ+xOqjfI93zsACMCMSyd+YJJ2LiQIApo4CCwB247kzDOvPlfR+yYZLMF+X7PPuldek6c2jLD/KggILwDTb5m4fmZzc9Kb169ffRRwAsIsHYUQAALtn4cKFew8NzX+tu79B0pwSTHmTmb1v//33fteaNWu2sQNQdBRYAKbRt93ttDRt3UAUALB7KLAAYI8Pcpce4d47z0xPKcmUbwoCO310tPUNVh/FfmxTYAHYYyOSvypJOpcRBQDsGQosAJgmtVr9JDM7X1KzJFO+LMuCU8fG1rVZfRQRBRaAPXC3mb23WtU5rVZrC3EAwJ6jwAKAaVSr1fYKgjmvc/fXS5rHG3RgcFFgAdhN/IIHAGYABRYAzIDh4eHDsiz4oKRnlGTKXCKBwqHAArCLuMQeAGYQBRYAzKBarf5EM7tA0pElmTI3qUVhUGABmCI+5AQAZkFABAAwc9K08+1FixY80MzPkFSGj8x+opn/ulZrnnfIIYfsww4AABSYS/Y59+pRcdw6i/IKAGYWZ2ABwCyJoih0r7xb0qqSTDmR/I1J0rmY1ccg4gwsAPfjanc/LU07PyIKAJgdFFgAMPsHxY+TdL6kY0oy5e9VKn5ap9NZw+pjwB6rFFgA/tzvzPzsOO5cKKlHHAAwe7iEEABmWZK0v7do0YLjzPwMM91Zgik/rtezX9VqzfMOOmjZfuwAAMAAyiRd0u1Wj4zjznmivAKAWccZWADQR41GY3G3q3MlnVyS5+Qxyc9Mks4lkpwdgDzjDCwAkmSmK93t1CRp/ZQ0AKCPz8dEAAD9Nzw8fHyW2YWSPbQcBwN2uWSnxvG637D6yCsKLKD0bjPzt8dx5wLdcwYWAKCfxxBEAAC5EYRh/WTJ3i9pQQnmm0n6jPvkq9M0vZXlR95QYAGl1ZXsP6TJNyZJchtxAEBODpaIAAByI0uSzsVmveXudr6Kf3+NQNIqs6Ebo6i+WlKFLQAA6Cd3/6FZsDJJWi+jvAKAfOEMLADIqVqtcZyZLpT08JJM+SpJpyZJ+yesPvKAM7CAUkklfwP3aASA/KLAAoCcP0+HYX2VZO+VdGgJ5uuSPt3tVv9lYuLmW1h+9BMFFlAKk+520ZYt1X/dsGHkTuIAgPziEkIAyDdPks7FQ0P2+8sKuwWfr0laVa12f39ZYZUtAACYId/t9fzBadpaTXkFAINxoAAAGBC1WvNIM50v+ZNKMuVfZ1l22tjY6OWsPmYbZ2ABhRVL/qYk6VxMFAAwOCiwAGAA1Wr1k8zsQkn1kkz5MvfqK9L05lFWH7OFAgsonM3udv7k5KZ3rF+//i7iAIDBQoEFAANq4cKFew8NzX+tu58paW4JprzJzN43b1713SMjI1vZAZhpFFhAoVzW7er0iYn2OqIAgMFEgQUAAy6KosPdK+dJempJpnyTmc6I4/bXWH3MJAosoBBGzLQ6jttfJQoAGGwUWABQELVa/aQgsPPctaQkU76s17PTxsdbLVYfM4ECCxhod5vZezlrFwCKgwILAAokiqL5UvX17v56SfNKMOXNZvaealXntFqtLewATCcKLGBgXZZlwaljY+vaRAEAxUGBBQAFVKsdNmzWfaekVSWZ8s2SvyFJOp9j9TFdKLCAgXOje3B6mq77JlEAQPFQYAFAoQ/A60+Q7AJJR5Vkyt/OMp0+Nta+ntXHnj9+KLCAAXGHmb97//33/cCaNWu2EQcAFBMFFgAU3MqVK4cmJta/wt3eLmnfEkx50t0u2rZt7ptvvfXGjewA7C4KLCD3XNKnJyeD195yy7oJ4gCAYqPAAoCSGB4ermVZcI6kk0vy/J9I/sYk6VzM6mN3UGABufYrdz8tTTtXEAUAlAMFFgCUTBQ1H+uu8yV/QEmm/P0gyE4bHR29ltXHrqDAAnLpd2Z+dhx3LpTUIw4AKA8KLAAop2oU1V/pbmdL2r8E8+2624fnzQvesnbt2jtYfkwFBRaQK5mkz/R6Q68ZHx9ZTxwAUD4BEQBAKXXjuHPe0JAdKdnFuuc+IkVWNfPTt27tXR+G9VXiFziY+gEzgP77sbsekiTtUyivAKC8eAMPANDw8PBDsiy4UNLDSvLy9wszOzWO1/2c1cd9CcPGbyUtIwmgb24z87fHcecCUSgDQOlxBhYAQKOjo79MkvYjJH+BpBL8dtuPd89+EoaNixctWnYIOwA7YqZtpAD0Rdfdzp87t3JYHHfOE+UVAEAUWACAP8qSpHNxpeLL3e18Ff/muIGkVZXK5A1RVF8tqcIWwL25ayspALPuB2a949K0tZp7FgIA7o1LCAEAO1SrNY4104WSHlGSKV/lrtPStP1jVh+SFIaNn6o0l9UCfZdK/oYk6Vyi4t+XEQCwGzgDCwCw4yOJtP2rJGk/avtlhRMlmPJxZvpRGDYuPvTQJQvZAXB3zsACZt6ku52/deu8I5OkU4YPFQEA7CYulwAA3K+NG+/49cEHH/ixXs/MTA8t+GuHSXpQpeIv3n///TU8HP1i/fr1PXZBOe233wH/IGkpSQAz5jtZpmeOjbUvufvu27jnHABgp2/UAQCYklptyfIg6J3vbn9Vkinf4B6sTtN132T1yycMG5+X9BySAKabj0p68/YzrgAAmBIuIQQATFmarrsxjjtPdvdnSmqXYMpHmmXfCMPGpbXa0jo7oHQH2beSATCtNpvZ2UNDwRGUVwCAXcUlhACAXbZx4x037bvv3v8eBNWupIdLqhZ8ykeY+cv23//AOYceuuAnGzZs4LLCEthvvwMeJukxJAFMi8u6XZ00Ntb+0u23394lDgDAruIMLADAbknT9O44bp1l1jtG0ldLMOW93P2tmzdvuyaKGk9jBxSfGWdgAXvOf2umpyVJ+6SJifY68gAA7C4KLADAHonjeCRJ2k9392eaqQQHJ3a4u74Sho1LFy5sLGEHFHqtKbCA3bfJzM6eP3/OA+K4/TXiAADsKS4hBABMi40b77hpv/32/Xcz2yjZCdL/3969B8lVlnkc/z2npyc3ZiYTMkzSp6e7gzECUcMKtQiCd1dUcLFqvewKa7mClisJUUQRVG676i6ogUS0ELcQ8LLqVskSFnQVFRG5JApi0GDI9PSc0zMhEGYyuc5Mn2f/SHTLC5CQuXT3+X6q8sekUqk8v/ednLefed/3qLXJS14SBHpvR0dndt68ufdyJKb5HHbYvIVmfhZJAAdtrXvmTXHcewtHrgEAE4W3EAIAJlx3d3FRNqvPueuMVDxMTb1JYh+sVsu3MPrNIwwXLZOSB0kCOGC/CoJgeX9/711EAQCY8DU3EQAAJq8BUHy1mVa765iUlPzDWs1XDA5WHmH0G9+8eYvbZ80aGyYJ4FkNmfmlUVT5giR2owIAJgV3YAEAJk0c993Z3T3/WDNfKWkkBSW/JpOxB3O50tXz57+gjRnQ2LZt27Rd0laSAJ6WS7ppbCw4KooqV4vmFQBgErEDCwAwJXp6enJJEnxG0pkpef5UJf9YHFdu2v8hDw0oDIv3SDqRJIA/8wt3La9W++4hCgDAVKCBBQCYUj09i16eJMlqSS9OSck/Mastj6LoYUa/8YRh8Sbta7oC2GebmV8eRZU1krigHQAwZXgLIQBgSm3fPtQ3MjJ8fUdHRyzZSZJmN3nJJSk4p62tc35X17yfP/XUU3uZBY2jo6NzmaRXkgSgRNLN7mOnx3H0I7GzFAAwxbgDCwAwHcajqHLd2FiwVPIbUvBBqMXMV+zdW9sYhqV3iR3QDcQfJQNAd0t2XBz3/WO1Wn2COAAA04EFNABg2i1cWDguCGyNpJemoV53rQsCOzeKyvcx+vU+N4tHB4F4qyTSakDyC7nLDwBQD2hgAQDqRRCGhTMlu0pSVwrqTSR9rVbLnj84uIk33dXxvMzni0+5q50okCJj7vbFPXtaPrH/bZwAAEw77sACANQLHxkZfqizs+P6JAlmmel4NfdRd5O0LAiSszs6OvZs3z68TuxwqMt52dY291RJJaJASvwoCJIz4rhy4+7d27izDwBQV4tnAADqThiWjpV8jaSXpaTkX7r78mq18jNGv97mYvEqSeeTBJpcLPlFcVy5kSgAAPWIS9wBAPX5SSouPxjHfadI/jbJ+1NQ8l+Z2U/DsHhjqVRawAyoH+62nhTQxMbc7ZrR0V1H0bwCANQzjhACAOrayMjwI9ls11ey2WSmpOOb/NllkpYlic5pb+/cMzIytE777srCNJo9u2NnEOg8kkATWhsEyelxXPn6rl27RokDAFDvC2UAABpCGB65xH38GjN7fUpK3hgEdl5/f/l7jP50z73iY5KOJAk0icckXxnHlbVEAQBoFBwhBAA0jDje/Gi1WjnV3d8sqS8FJb8gSfyOMCzeunDhoiIzYDr5/5IBmsAuM7ssm7UX0rwCADQajhACABrOyMjwo21tc64LgpZxSS+V1NLkJS8x8/d2dHS2HnHE/J9v27atxiyYWh0dc2dIehtJoIGtrdXstGq1/N2hoaFx4gAANBqOEAIAGlo+n1/snlkl6U0pKXmTpJVx3Hcboz91SqXS3LExf0L88A+N51EzOy+KyncQBQCgkdHAAgA0hVyucLqZrVJq7imy/85kkg9WKpXNjP7UCMPiz7Vvxx9Q//9DmLa76/IFC+Zfs379+jESAQA0On6KCABoCiMjw48WCvkv7d2790nJTpbU2uQlv8Dd3t/W1tk1c2b2bt4gNvna2ubOM9PrSAJ1ziX7jnvLGdVq7x0DAwO8yRQA0BTYgQUAaDr5fD50z3xa0lkpKTmS/OI4rtzI6E+eXO55PWbjZfESHNSvB919ebVauZsoAADNhgYWAKBphWHxVe5abaalKSn5zkzGV1QqlQ2M/qTNqZ9KOpkkUGeGzPzSKKqskcRLHgAATYkjhACApjUyMlxesmTxl3fu3PmkmZ0kaUaTl7zI3c5pa+ucn83Ov2f37m17mQUTq61t7iyz1LwwAPXPJd08Pt7y5oGB8p37vwYAoCmxAwsAkAo9PT25Wi240kx/n5LnX+xuF1Sr5W/yoXbiLFiwuCuTGatKaiENTLP7giA5t7+/fx1RAADSgAYWACBVFi7sOSUIgjWSXpyGet39riDILI+i3l8x+hMjDIvflvR3JIFpss3ML4+iympJXNAOAEgNGlgAgDQKwrBwpmSflTQ/BfUmkr7mPvaharX6BMN/aHp6Fr08SZKfkAT4PgYAYOrQwAIApFY+n5+XJC2XmPkHlI57Idm5MUFyueIDZjqeJDAV2EkJAAANLAAAlMsVX2KmNZJOTMXD37Te3c6N4/K9jP5znTOld5v5f5AEJtmA5BfGceUmcZcdACDlaGABALBPkM8X/8ldn5LUlYJ6E3d9RRq7iONIB69UKs0cG/M+SUeQBibBqJmt2rt35xVbt27dQRwAAKTjuAQAAAfCt28f/sXhh3d+uVaz2WY6TlLQxPWamY4zy7y3o6Njz/btw+vEDo8DNjQ0NN7e3lmT9HrSwAS7M5PxM/r7+76+a9euUeIAAGD/4pUIAAD4c2G4aJmZr3b3U1JS8oPuvrxardzN6B+Y/buwNkoqkAYmQCT5xXFcuZEoAAD4czSwAAB4Brlc4XQzfUGynhSU65J9xz1zfrX6WD+jfyDzo/geM11PEjgEo+72pbGxnRdzXBAAgKdHAwsAgGfR3d09J5uddYG7XyhpRgpK3mlmV3V0zPnUhg0bOML0zDJhWHxY0tFEgedgbSbj51Uqlc1EAQDAM6OBBQDAAVq4sHh0EOgaSa9NxSLB9Ii7r4jjyg8Z/acXhoXTJLuVJHDg/Hdmdl4U9d1OFgAAHODalAgAADg4+44V2jWSSikpeW2tZssHB8tlRv8vC8PStyR/K0ngWewysytbWvSZcrm8hzgAADhwNLAAAHgO8vn8LKnlo+7+UUkz+eCdbqVSacHYmD8iqZM08DTWJklw7sBAbx9RAABw8GhgAQBwCHp6ep6XJJlPp2j3zWOSr4zjylpG/4/l88Wz3fVlksCf2BgEdl5/f/l7RAEAwHNHAwsAgAkQhsU3SVolaXFKSl4bBMnK/v7+xxj9/19X5XLF/zHTqUQBScOSXRrH5TWSxokDAIBDExABAACHLo77bluwYP4xZr5S0kgKSj4tSYLf5HKlq7u6ug5jBkiSPAhq75RUJop0zwNJN2WzdlQcl1eJ5hUAABOCHVgAAEywXO55PWa1z6boWGFF8gviuPLt/R/eUy0MSy+V/C5JWb4bUucXks6N476fEwUAABOLBhYAAJMkny+90t1XS3phOir2+yVbyYd3KZ8vnOduq/guSI2nzPyyKKqskVQjDgAAJl6GCAAAmBzbtw+VlyxZfP2OHbuGzHSipBnNXbGFkt7d3j631N5+2PqRkZHt6R374fva2ztzko7jO6GpJZJfJ9XOiOPoR2IHIgAAk7fSJAIAACZfqVRaMDamyyQ/W+m4g3JUshvGxuyTjz/euyWlwx6EYembKTpKmiruWmdmy+O4fC9pAAAw+WhgAQAwhXK5wsvMbI2kY1Ox0DBtTxL/7J49rau2bduUuh1ZixcvnrF799jtkl7F7G8aWyS7MI7LXxU7rgAAmLp1JREAADDlMrlc8X1mukLSvJTUPGRm10jjV0dRtC1Ngz1v3uL2WbPG7pB0IlO/oY1LvmbGjJZLN2/ePEwcAABMLRpYAABMk1wuN1/KfspM71E6jhVK0oi7XZvN+tV9fX0DKRrr2WbZb0l6EzO/If04CJLl/f39vyYKAACmBw0sAACmWS5XfImZVks6KUVlj0p2i5ldFUW996ek5kwuV/ySmc5m1jeMquQfi+PKTeK4IAAA07uQIgIAAKbXyMjwwMjI8A1tbXMr+99WOCcla5Clkp/T3j73lLa2zu0jI0ObJCVNXLOPjAyvbW+fm5F0ivhBYj0bdfcra7W9bx0YqK4jDgAAph8LJwAA6kipVJo7OqrLzPyfJbWkrPwBd7vR3b44MNDb18yFhmHhNe52s5kWMOvrzg9rNV8xOFh5hCgAAKgfNLAAAKhD+Xz+Re6Z1ZJekcLyxyXdIfmN2Wxwa7lc3tOMRYZhmJdaviHpZGZ8HSyKTb1JYh+sVsu3kAYAAHX4rCYCAADq9zmdy5XeYeZXSgpTmsGQ5P9pFnwjisp3S6o1WX0tuVxxpZkukXQYU35a7Hb3fwuC5N+jKNpNHAAA1OnCmAgAAKhvuVxudhC0fsTdL5Q0I8VRbJN0m+S3jo7uvn3r1q07mqWwnp6eXJIEn5F0FjN+Sq0dH9eKLVv6eokCAID6RgMLAIAGkcstekEQ1K5xt78hDe2U9D3Jv2uW3BZF0bZmKCqfL53q7v8q6SUM8aTa6B6sqFZ7v08UAAA0BhpYAAA0mHy++BZ3fU5SiTQk7bsz6y5Jd7r7T2bPbn1g06ZNext5fZbPF9/gro9LOpHhnVA73P2Kzs62VRs2bBglDgAAGmiBRAQAADSefD4/S2q50N0/ImkmifyRPe5+v5nd5R78dGxsxz2NetwwDIuvlux9kr+ZcT4kbqZvSrULoiiKiQMAgMZDAwsAgAbW3V1clM36593tb0njaY1L9ksp+ZmkX5glD0ZR9Jt9v98YCoVCZ60WvMPM3+Ou4xjSg1ruPmym5VFU/glZAADQwE90IgAAoPHtP3K2StIS0jgge830a3fbIOm3Zv5oEPhvW1tbN9XD8cN9F/fPWOxeO8osOMZdx7j7MWZ6vqRWhu+ADJn5JVFUuVYN1KwEAAB/GQ0sAACaxNKlS1uHh3d+yN0/LmkOiTwnLmlQUlnyipn1u1vVLNlqFmxNEht0D7a1ttZGyuXy0MH+5d3d3XOCYPb8lpbxLvfMfCmZL+lwdytKKpqp6K6CpC6G4pDG8Ibx8ZYLt2x57HHiAACgOdDAAgCgyYRhmJcyV0n2dtKYdCP7f+3Z//UuM+2VJHe1SWqR1CEpkNRJXJPLXeuCwM6NovJ9pAEAQHOhgQUAQJPK50uvcNdqyV9EGmhy28z88iiqrJFUIw4AAJoPDSwAAJpbSz5f+IC7XaZ9O4GAZpJI+lqtlj1/cHDTVuIAAKB50cACACAFwjA83D37STM/V/uOswGNvox9wMzOjaLe+8kCAIAUPPmJAACA9Ojp6Tk+SYI1kk4gDTQidw0GgV8SRZXrtW8HFgAASAEaWAAApE8QhoUzJbtKvO0OjWPc3a6dOTP45ObNm4eJAwCAdKGBBQBAShUKhc7x8eBSM/+ApAyJoI79OAiS5f39/b8mCgAA0okGFgAAKZfLFV9iptWSTiIN1JmK5B+O48q3iQIAgHSjgQUAACRJuVzh9CCwq921iDQwzXa52+qxsZ3/snXr1h3EAQAAaGABAIA/yOfzs6RghWQXuaudRDDFXLLvuAcfrlY3V4gDAAD8Hg0sAADwZ3p6enLuwRXuepe4HwtT484k8Y8MDFTWEwUAAPhTNLAAAMDTyuVKR5n5RZLeKSkgEUzCcvQB9+SKarVyK1kAAICnXTEQAQAAeDb5fP5F7i2fkPytpIEJ8hvJL4njynckOXEAAIBnQgMLAAAcsFyucLJkF5vpVNLAc1x+PuyuT1er5W9JqpEHAAA4oBUEEQAAgIMVhouWScn5kv5B3JGFA/Og5J+P48rNkhLiAAAAB4MGFgAAeM4KhcLSWs0+KuntklpJBH/BD9yDK6vV3u8TBQAAeK5oYAEAgEN2xBGLultb/f3u/gFJ80kk9UYlu8XMroqi3vuJAwAAHCoaWAAAYMLkcrnZZq1nmfkKdx1DIqmzRdJ12axdWy6XB4kDAABMFBpYAABgUixcWDguCIL3Sn6mpNkk0rRc0g8lv27u3LZbNmzYMEokAABgotHAAgAAkyqfz89zb3mXmZ/Nrqzm4a5Byb6aydS+3N/f/xiJAACAyUQDCwAATJlCobB0fDw4S/J3mWkBiTScPZJ+IPmNCxZ0fXf9+vVjRAIAAKYCDSwAADAdWsKw+HozvdNdp0lqI5K6NS7ZjyR9fe/eGf/1xBMbR4gEAABMNRpYAABgWpVKpZmjo8nrzILTJH+LpC5SmXY1Sfea+bdHRzPffPzx3i1EAgAAphMNLAAAUDeWLl3aOjy889XufrqZ3uCuRaQyZZ400/clrW1tzdy2efPmYSIBAAD1ggYWAACoWwsXFo8OAr1R0hslvUzSDFKZMImkhyTd7q7bqtW++7Rv5xUAAEDdoYEFAAAaRcvChYVlmYxe626vlXSKaGgdrM2S/UBKfiDV7ozj+EkiAQAAjYAGFgAAaEjd3d1zWlpmniDpRMlOkPwESUeQzB/skLTO3e+VgnuTpOWewcFNW4kFAAA0IhpYAACgaRQKhSPHx4O/lnSs5MvMtEzSwhSUPuzuDwWB/UrSQ1JwfxT1bhBHAgEAQJOggQUAAJraggWLu4JgdJlkRwWBjpL8+e62RFJBUtBg5TxuZhuTxDdK/jvJf1urBQ9v2dLXy0gDAIBmRgMLAACkUqlUmrlnT3JkS0tQkDwvWY97UpQslKxb8vmSuiS1TNE/aaukJ8zsiSTx/iCwKEm8X/I+s6A/m1W5XC4PMXIAACCNaGABAAA8gzAMD3fPdgWBtSdJrT0IrN3d50jBHLOk4/d/zt3a3S3zRwst07BZkkhSkthOyXaaJTvcNSTZzkwm2Z7JZJ4ol8tbxXE/AAAAAAAAAAAAAAAAAAAAAAAAAAAAAAAAAAAAAAAAAAAAAAAAAMCB+D+NcBV56Wy/dgAAACV0RVh0ZGF0ZTpjcmVhdGUAMjAxOS0wOS0wN1QxMjowODoxNSswMDowMIe+Q1cAAAAldEVYdGRhdGU6bW9kaWZ5ADIwMTktMDktMDdUMTI6MDg6MTUrMDA6MDD24/vrAAAAAElFTkSuQmCC;" vertex="1" parent="wXfIVqRI5IDE_gxadgP8-17">
          <mxGeometry y="35" width="69.46" height="80" as="geometry" />
        </mxCell>
        <mxCell id="wXfIVqRI5IDE_gxadgP8-10" value="" style="pointerEvents=1;shadow=0;dashed=0;html=1;strokeColor=none;labelPosition=center;verticalLabelPosition=bottom;verticalAlign=top;outlineConnect=0;align=center;shape=mxgraph.office.concepts.clock;fillColor=#000000;" vertex="1" parent="wXfIVqRI5IDE_gxadgP8-27">
          <mxGeometry y="8" width="35" height="35" as="geometry" />
        </mxCell>
        <mxCell id="wXfIVqRI5IDE_gxadgP8-38" value="" style="shape=curlyBracket;whiteSpace=wrap;html=1;rounded=1;flipH=1;fillColor=none;rotation=-90;" vertex="1" parent="1">
          <mxGeometry x="155" y="140" width="20" height="250" as="geometry" />
        </mxCell>
        <mxCell id="wXfIVqRI5IDE_gxadgP8-39" value="" style="endArrow=classic;html=1;" edge="1" parent="1" source="wXfIVqRI5IDE_gxadgP8-14" target="wXfIVqRI5IDE_gxadgP8-9">
          <mxGeometry width="50" height="50" relative="1" as="geometry">
            <mxPoint x="120" y="210" as="sourcePoint" />
            <mxPoint x="170" y="210" as="targetPoint" />
          </mxGeometry>
        </mxCell>
        <mxCell id="wXfIVqRI5IDE_gxadgP8-40" value="" style="endArrow=none;html=1;entryX=0.1;entryY=0.5;entryDx=0;entryDy=0;entryPerimeter=0;" edge="1" parent="1" target="wXfIVqRI5IDE_gxadgP8-38">
          <mxGeometry width="50" height="50" relative="1" as="geometry">
            <mxPoint x="165" y="200" as="sourcePoint" />
            <mxPoint x="290" y="350" as="targetPoint" />
          </mxGeometry>
        </mxCell>
        <mxCell id="wXfIVqRI5IDE_gxadgP8-42" value="" style="endArrow=classic;startArrow=classic;html=1;" edge="1" parent="1" source="wXfIVqRI5IDE_gxadgP8-4" target="wXfIVqRI5IDE_gxadgP8-5">
          <mxGeometry width="50" height="50" relative="1" as="geometry">
            <mxPoint x="210" y="400" as="sourcePoint" />
            <mxPoint x="115" y="400" as="targetPoint" />
          </mxGeometry>
        </mxCell>
        <mxCell id="wXfIVqRI5IDE_gxadgP8-49" value="" style="group" vertex="1" connectable="0" parent="1">
          <mxGeometry x="500" y="450" width="105.75" height="79.99000000000001" as="geometry" />
        </mxCell>
        <mxCell id="wXfIVqRI5IDE_gxadgP8-8" value="" style="verticalLabelPosition=bottom;html=1;verticalAlign=top;align=center;strokeColor=none;shape=mxgraph.azure.mobile;pointerEvents=1;fillColor=#000000;" vertex="1" parent="wXfIVqRI5IDE_gxadgP8-49">
          <mxGeometry x="70.75" y="29.99000000000001" width="35" height="50" as="geometry" />
        </mxCell>
        <mxCell id="wXfIVqRI5IDE_gxadgP8-1" value="" style="verticalLabelPosition=bottom;html=1;verticalAlign=top;align=center;strokeColor=none;shape=mxgraph.azure.computer;pointerEvents=1;fillColor=#000000;" vertex="1" parent="wXfIVqRI5IDE_gxadgP8-49">
          <mxGeometry y="34.99000000000001" width="50" height="45" as="geometry" />
        </mxCell>
        <mxCell id="wXfIVqRI5IDE_gxadgP8-47" value="" style="shape=curlyBracket;whiteSpace=wrap;html=1;rounded=1;flipH=1;fillColor=none;rotation=-90;" vertex="1" parent="wXfIVqRI5IDE_gxadgP8-49">
          <mxGeometry x="43.43000000000001" y="-42.19" width="20" height="104.38" as="geometry" />
        </mxCell>
        <mxCell id="wXfIVqRI5IDE_gxadgP8-51" value="" style="shape=curlyBracket;whiteSpace=wrap;html=1;rounded=1;flipH=1;fillColor=none;rotation=-90;" vertex="1" parent="1">
          <mxGeometry x="541.99" y="145" width="20" height="240" as="geometry" />
        </mxCell>
        <mxCell id="wXfIVqRI5IDE_gxadgP8-52" value="" style="endArrow=none;html=1;entryX=0.1;entryY=0.5;entryDx=0;entryDy=0;entryPerimeter=0;" edge="1" parent="1" source="wXfIVqRI5IDE_gxadgP8-2" target="wXfIVqRI5IDE_gxadgP8-51">
          <mxGeometry width="50" height="50" relative="1" as="geometry">
            <mxPoint x="175" y="240" as="sourcePoint" />
            <mxPoint x="175" y="267" as="targetPoint" />
          </mxGeometry>
        </mxCell>
        <mxCell id="wXfIVqRI5IDE_gxadgP8-53" value="" style="endArrow=classic;html=1;entryX=0;entryY=0.5;entryDx=0;entryDy=0;" edge="1" parent="1" source="wXfIVqRI5IDE_gxadgP8-9" target="wXfIVqRI5IDE_gxadgP8-2">
          <mxGeometry width="50" height="50" relative="1" as="geometry">
            <mxPoint x="209.46000000000004" y="210" as="sourcePoint" />
            <mxPoint x="330" y="210" as="targetPoint" />
          </mxGeometry>
        </mxCell>
        <mxCell id="wXfIVqRI5IDE_gxadgP8-56" value="" style="endArrow=none;html=1;entryX=0.1;entryY=0.5;entryDx=0;entryDy=0;entryPerimeter=0;" edge="1" parent="1" source="wXfIVqRI5IDE_gxadgP8-22" target="wXfIVqRI5IDE_gxadgP8-47">
          <mxGeometry width="50" height="50" relative="1" as="geometry">
            <mxPoint x="561.99" y="245" as="sourcePoint" />
            <mxPoint x="561.99" y="267" as="targetPoint" />
          </mxGeometry>
        </mxCell>
      </root>
    </mxGraphModel>
  </diagram>
</mxfile>
